<?xml version="1.0" encoding="UTF-8"?>
<svg version="1.1" viewBox="0 0 814 1350" width="1280" height="1280" xmlns="http://www.w3.org/2000/svg">
<path transform="translate(461,25)" d="m0 0h8l14 3 13 7 9 9 8 12 6 7 11 7 11 4 6 1h11l17-4 10-1 13 2 12 5 9 7 8 9 6 13 4 17 5 10 7 9 10 7 9 4 10 2 14 2 12 5 11 8 7 9 5 10 2 7 1 11-2 14v14l3 11 5 10 9 10 11 7 8 4 10 8 7 10 4 9 2 9v14l-4 14-9 16-3 13v11l3 13 6 11 10 11 5 8 4 12 1 6v9l-4 16-6 10-6 7-10 8-7 7-7 14-2 9v14l4 14 3 9 1 6v8l-3 14-5 10-9 10-9 7-13 5-11 4-11 8-6 7-7 14-2 12v10l-2 12-4 10-7 9-8 8-14 7-8 2h-26l-12 3-8 4 4 19 28 117 22 93 25 105 28 118 5 21-1 2-121-37-10-3-5 1-12 12-8 7-16 16-8 7-15 15-8 7-16 16-8 7-8 8-2-3-29-121-23-97-18-76v-4h-2l-1 9-23 96-25 105-21 88-2 3-14-14-8-7-16-16-8-7-15-15-8-7-16-16-8-7-7-7-7 1-72 22-56 17-1-2 31-130 22-93 26-109 23-97 10-42 1-2-17-4h-28l-12-4-10-6-7-6-7-10-5-14-2-24-4-12-7-10-7-7-11-6-20-7-11-8-8-9-6-13-2-8v-14l3-12 4-13v-16l-4-13-7-11-10-9-8-7-6-7-5-10-3-14v-8l4-16 6-10 10-12 6-12 2-10v-12l-3-12-10-18-3-9-1-6v-11l3-12 6-12 8-9 11-7 12-7 8-8 6-10 3-9 1-5v-14l-2-11v-10l3-13 6-11 9-10 9-6 10-4 23-4 14-7 8-7 7-11 4-11 4-16 5-10 9-10 10-7 11-4 5-1h14l18 4h12l12-3 11-6 10-9 9-14 9-9 10-6 15-4h11l13 3 11 6 10 7 13 5 13 1 12-2 12-5 14-10 13-5z" fill="#FCE150"/>
<path transform="translate(599,729)" d="m0 0 2 2 31 130 28 118 29 122 24 101-1 2-121-37-10-3-5 1-12 12-8 7-16 16-8 7-15 15-8 7-16 16-8 7-8 8-2-3-29-121-23-97-18-76v-4h-2l-1 9-23 96-25 105-21 88-2 3-14-14-8-7-16-16-8-7-15-15-8-7-16-16-8-7-7-7-7 1-72 22-56 17-1-2 31-130 22-93 26-109 23-97 10-42h4l3 1v2l5 2 9 10 4 7 4 10 7 11 9 8 6 4 12 4h22l11-4 10-5 9-2h15l13 4 11 6 14 14 9 6 13 4h19l10-3 11-7 6-5 7-8 10-7 9-4 5-1h19l9 3 11 5 10 3h16l15-5 10-7 7-7 14-28 6-7z" fill="#084C91"/>
<path transform="translate(383,127)" d="m0 0h43l26 3 28 6 33 11 20 9 19 10 19 12 13 10 11 9 12 11 17 17 9 11 10 13 10 15 12 21 10 21 9 25 6 21 5 27 2 20v42l-1 11-3 1-9-6-2 18-4 20-7 24-6 16-12 26-15 25-12 16-9 11-11 12-14 14h-2v2l-9 7-4-2-6-7-4 1-7 5-11 3h-13l-11-4-9-7-7-8 1-3 8 10 9 6 14 3 10-1 10-4h3v-2l6-4 2-5-11-7-8-4-5-8-5-6-5 1-10 7-8 4h-3l2-4 11-4 10-9 3-3 1-3h2l3-10 2-10v-8l-2-10-3-8-4 2-7 6-7 10-5 9h-3l-9-10-22-28-13-16-11-14-13-16-11-14-7-9-3-1-1-196-2-3h-39l-3 5-7 14-6 7-12 6-9 2-24 2-4 4v37l1 3 2 1 44 1v132l-7 7-13 19-16 23-12 17-16 23-12 17-4 3-4-11-5-12-6-9-8-9-6-3-3 11-1 4v15l4 13 7 11 10 8 11 5 1 2-10-2-3-1-1 3-19 3-13 5-8 6h-2l7 8 12 6 5 2h15l14-7 11-11-1 4-7 8-10 7-6 2h-22l-8 11-4-1-16-12-11-10-4-3v-2l-4-2-15-16-11-14-10-14-13-22-8-16-8-19-7-21-6-26-4-28v-43l2-20 5-26 7-24 6-16 9-20 9-17 16-24 9-11 11-13 19-19h2v-2l14-11 15-11 13-8 16-9 19-9 25-9 22-6 30-5h4l-4-6-3-5 2-1z" fill="#D0A134"/>
<path transform="translate(184,831)" d="m0 0 32 8-1 9-9 40v4l18 5 100 25 45 11h5l11-44v-11l-3-14 7-3 21-5h5l11 44 28 118 12 51 12 50 17 71 10 43-12 12-8 7-8 8-2-3-29-121-23-97-18-76v-4h-2l-1 9-23 96-25 105-21 88-2 3-14-14-8-7-16-16-8-7-15-15-8-7-16-16-8-7-7-7-7 1-72 22-56 17-1-2 31-130 22-93 26-109 9-38z" fill="#084C90"/>
<path transform="translate(301,158)" d="m0 0h2l4 13 22 55 15 38 9 23-1 4-24 2-4 4v37l1 3 2 1 44 1v132l-7 7-13 19-16 23-12 17-16 23-12 17-4 3-4-11-5-12-6-9-8-9-6-3-3 11-1 4v15l4 13 7 11 10 8 11 5 1 2-10-2-3-1-1 3-19 3-13 5-8 6h-2l7 8 12 6 5 2h15l14-7 11-11-1 4-7 8-10 7-6 2h-22l-8 11-4-1-16-12-11-10-4-3v-2l-4-2-15-16-11-14-10-14-13-22-8-16-8-19-7-21-6-26-4-28v-43l2-20 5-26 7-24 6-16 9-20 9-17 16-24 9-11 11-13 19-19h2v-2l14-11 15-11 13-8 16-9 19-9z" fill="#D0A134"/>
<path transform="translate(389,256)" d="m0 0h39l3 4v196l4 1 13 16 11 14 13 16 11 14 13 16 10 13 13 16 3 2 8-14 10-11 4-3 3 1 4 11 1 7v8l-3 13-3 7h-2l-1 4-10 10-10 5-5 2-1 2 9-4 11-7 3-2 4 1 8 10 2 4 14 7 5 4-2 5-5 4h-2v2l-13 5-10 1-14-3-10-7-7-9 2 5 7 7 10 6 7 2h13l11-3 8-6 4 1 8 9-5 5-17 12-22 13-23 11-25 9-19 5-14 3-20 3-14 1h-36l-26-3-28-6-33-11-31-15-18-11-6-4 6-8 4-5h22l9-4 9-7 5-6v-2l-7 8-6 5-11 5h-15l-14-6-10-9v-2l14-9 13-4 15-2 1-2 12 2-14-7-8-7-7-11-4-13v-15l5-15 4 1 8 7 6 8 7 14 4 12h2l9-12 11-16 28-40 16-23 8-11 5-5 1-132h-44l-3-2-1-3v-37l5-5 24-2 12-3 10-6 7-10 6-13z" fill="#D0A134"/>
<path transform="translate(76,390)" d="m0 0 4 2 27 27 4 2 2 31 4 26 6 24 9 26 9 20 11 21 14 21 10 13 11 13 12 13 13 12 14 11 15 11 18 11 23 12 25 10 26 8 25 5 25 3 20 1 4 6 27 27-2 4-7 2-15 2-4 1h-9l7 8 37 37-5 5-10 6-10 3h-19l-13-4-11-8-12-12-16-8-8-2h-15l-11 3-15 7-4 1h-22l-14-5-10-8-7-8-6-11-4-9-6-9-7-6-2-1v-2l-4-1-9-4-10-2h-28l-12-4-10-6-7-6-7-10-5-14-2-24-4-12-7-10-7-7-11-6-20-7-11-8-8-9-6-13-2-8v-14l3-12 4-13v-16l-4-13-7-11-10-9-8-7-6-7-5-10-3-14v-8l4-16 6-10 10-12 7-13 5 3 27 27 2 1v-9l4-23z" fill="#EBB61E"/>
<path transform="translate(219,403)" d="m0 0 1 3-9 11-9 8 2 1 12 1 3 1v2l-10 6-8 11-4 12-1 15 2 12 4 11 4-1 9-12 7-16 3-14v-18l-1-9 2-1 48-2 56-2h26l9-1 5 1v49l-6 7-13 19-16 23-12 17-16 23-12 17-4 3-4-11-5-12-6-9-8-9-6-3-3 11-1 4v15l4 13 7 11 10 8 11 5 1 2-10-2-3-1-1 3-19 3-13 5-8 6h-2l7 8 12 6 5 2h15l14-7 11-11-1 4-7 8-10 7-6 2h-22l-8 11-4-1-16-12-11-10-4-3v-2l-4-2-15-16-11-14-10-14-13-22-8-16-8-19-7-21-6-26-4-28 1-13 25-2 2-1-4-8 1-3 6 11 8 8 10 5 8 2 1-14 5-1 2-3v4l12-6 12-11z" fill="#B9820F"/>
<path transform="translate(589,404)" d="m0 0 3 1 4 6 9 9 9 5 6 3v3l6 1 2 10 13-4 9-7 7-9 1 3-5 7 2 1 29 2v10l-2 20-4 20-7 24-6 16-12 26-15 25-12 16-9 11-11 12-14 14h-2v2l-9 7-4-2-6-7-4 1-7 5-11 3h-13l-11-4-9-7-7-8 1-3 8 10 9 6 14 3 10-1 10-4h3v-2l6-4 2-5-11-7-8-4-5-8-5-6-5 1-10 7-8 4h-3l2-4 11-4 10-9 3-3 1-3h2l3-10 2-10v-8l-2-10-3-8-4 2-7 6-7 10-5 9h-3l-9-10-22-28-13-16-11-14-13-16-11-14-7-9-2-1v-34l4-1h7l7 1 26 1 75 4 30 2 3 1v26l4 15 6 13 8 11 4 3 5-13 1-5v-20l-5-14-7-9-4-4v-2l7-1h7l3-1-2-1v-2l-5-2-12-11-5-7z" fill="#B9820F"/>
<path transform="translate(208,730)" d="m0 0 6 2v2l5 2 9 10 4 7 4 10 7 11 9 8 6 4 12 4h22l11-4 10-5 9-2h15l13 4 11 6 5 5 11 48 5 21 4 15v11l-11 44-4 1-18-4-113-28-32-8-3-2 1-9 10-44-11-2-20-5-1-4 22-93z" fill="#133C67"/>
<path transform="translate(410,856)" d="m0 0h5l11 44 28 118 12 51 12 50 17 71 10 43-12 12-8 7-8 8-2-3-29-121-23-97-18-76v-4h-2l-1 9-23 96-25 105-21 88-2 3-14-14-8-7-6-7 13-55 12-50 19-80 12-50 13-54 1-3 10 1 14 3h2l-1-9-12-52-4-18 1-2 19-5z" fill="#296AA6"/>
<path transform="translate(388,139)" d="m0 0h29l22 2 25 4 26 7 16 6 1 1v6l-23 57-43 107-5 13-4 4-1-85-3-4h-39l-3 5-7 14-6 7-12 6-8 1-17-44-28-70-5-13v-5l9-4 15-5 26-6 25-3z" fill="#B9820F"/>
<path transform="translate(389,256)" d="m0 0h39l3 4v296l-3 4h-54l-3-4v-217h-44l-3-2-1-3v-37l5-5 24-2 12-3 10-6 7-10 6-13z" fill="#FCE14F"/>
<path transform="translate(617,807)" d="m0 0h2l23 96 23 97 29 122 19 80-1 2-36-11-3-8-26-109-16-68-12-50-16-68-12-50-5-21v-4l19-5z" fill="#296AA6"/>
<path transform="translate(170,888)" d="m0 0 31 8 2 2-15 65-12 50-22 92-15 64-6 23-10 4-27 8-1-2 31-130 22-93 21-88z" fill="#296AA6"/>
<path transform="translate(573,767)" d="m0 0 2 1 9 39v5l-8 3-156 37-6-1-5-18-4-15v-4l15-2 9-4 9-6 5-4 7-8 10-7 9-4 5-1h19l9 3 11 5 10 3h16l15-5 10-7 7-7z" fill="#133C67"/>
<path transform="translate(383,127)" d="m0 0h43l26 3 28 6 33 11 20 9 19 10 19 12 13 10 11 9 12 11 17 17 9 11 10 13 10 15 12 21 10 21 9 25 6 21 5 27 2 20v42l-1 11-3 1-9-6-1 3 1-17v-29l-3-28-4-21-8-27-8-20-11-23-10-17-12-17-11-14-15-16-8-8-2-1v-2l-4-2-13-11-24-16-16-9-25-12-27-9-19-5-33-5-14-1h-29l-15 1 4-1-4-6-3-5 2-1z" fill="#EBB51E"/>
<path transform="translate(404,590)" d="m0 0 3 4 11 23 1 1 31 5-1 2h-2v2l-8 7-6 6h-2l-2 4h-2l5 26v6l-6-2-8-5-12-6-6 1-10 6-11 6-3-1 5-30-10-10-8-7-4-5 9-2 22-3 11-22z" fill="#FCE14F"/>
<path transform="translate(599,729)" d="m0 0 2 2 17 71v5l-9 3-20 5h-4l-7-30-4-17 1-5 7-16 6-8 5-5z" fill="#29547E"/>
<path transform="translate(184,831)" d="m0 0 32 8-1 9-10 43-2 6-17-4-15-4-1-2 13-55z" fill="#28547F"/>
<path transform="translate(366,795)" d="m0 0 7 6 11 8 13 4 8 1 10 40v2l-29 7-4 1-2-5-11-47-3-13z" fill="#27547F"/>
<path transform="translate(262,536)" d="m0 0 4 1 8 7 6 8 7 14 4 15 1 7v13l-1 2-8-2-11-7-7-8-6-12-2-8v-15z" fill="#FCE14F"/>
<path transform="translate(232,311)" d="m0 0h10l10 3-1 6-6 11-10 11-10 7-14 6-4 1h-10l1-11 5-12 8-11 8-6 9-4z" fill="#FCE14F"/>
<path transform="translate(256,263)" d="m0 0h16l10 4 9 8-2 4-8 7-9 5-13 4h-24l-9-3 1-5 5-8 7-8 14-7z" fill="#FCE14F"/>
<path transform="translate(221,368)" d="m0 0h9l-2 15-5 14-6 10-9 10-9 7-7 4h-3l-1-7v-14l3-12 5-10 9-10 12-6z" fill="#FCE14F"/>
<path transform="translate(234,486)" d="m0 0h2l6 12 4 15v19l-3 16-5 13-7-6-4-5-6-12-2-8v-20l4-11 7-9z" fill="#FCE14F"/>
<path transform="translate(566,311)" d="m0 0h11l11 4 8 6 8 9 6 13 1 4v9h-8l-15-5-10-6-10-9-7-9-5-11v-2z" fill="#FCE14F"/>
<path transform="translate(306,569)" d="m0 0 10 2 13 7 9 8 9 12 6 13 2 9-10 1-14-3-11-7-7-8-5-10-2-7z" fill="#FCE14F"/>
<path transform="translate(536,263)" d="m0 0h17l10 4 9 7 7 8 4 8v2l-14 3h-15l-16-4-12-6-7-6-1-5 9-7z" fill="#FCE14F"/>
<path transform="translate(221,428)" d="m0 0h3l2 8v18l-3 14-7 16-10 13-4 1-4-9-2-6-1-15 2-13 4-10 8-10 10-6z" fill="#FCE14F"/>
<path transform="translate(500,569)" d="m0 0h3v15l-4 14-8 11-8 6-9 4-10 2-10-1 2-10 8-15 8-10 11-9 10-5z" fill="#FCE14F"/>
<path transform="translate(544,536)" d="m0 0 3 1 4 11 1 7v8l-3 13-3 7h-2l-1 4-10 10-10 5-6 1v-16l3-15 5-13 6-10 9-10z" fill="#FCE14F"/>
<path transform="translate(579,368)" d="m0 0h8l9 3 7 4 6 5 7 11 4 12 1 13-1 10-2 2-10-5-10-9-6-7v-2h-2l-6-12-4-14z" fill="#FCE14F"/>
<path transform="translate(573,486)" d="m0 0 4 2 8 10 4 10 1 6v14l-4 15-7 11-6 6-3-1-4-10-3-15v-20l4-16z" fill="#FCE14F"/>
<path transform="translate(585,428)" d="m0 0 5 1 9 6 7 8 5 10 2 7v20l-4 13-3 6-7-6-7-10-6-15-3-12v-22z" fill="#FCE14F"/>
<path transform="translate(290,209)" d="m0 0h13l-4 16-6 12-6 7-11 8-14 4h-10l1-10 5-13 7-9 9-8 10-5z" fill="#FCE14F"/>
<path transform="translate(269,605)" d="m0 0h8l10 2 12 6v3l-4 6-8 8-13 6h-15l-14-6-10-9v-2l14-9 13-4z" fill="#FCE14F"/>
<path transform="translate(147,448)" d="m0 0 8 1 14 7 10 9 7 9 4 8 3 12v5h-13l-13-5-10-9-6-10-3-9-1-7z" fill="#FCE14F"/>
<path transform="translate(161,513)" d="m0 0h14l12 3 11 6 10 9 6 8 3 6-1 5-7 3h-14l-11-4-8-6-7-8-5-10z" fill="#FCE04E"/>
<path transform="translate(506,209)" d="m0 0h11l10 3 9 5 8 7 7 10 5 13 1 9h-10l-14-4-11-8-5-6v-2h-2l-5-10-4-15z" fill="#FCE14F"/>
<path transform="translate(330,622)" d="m0 0h11l9 2 1 2-5 12-7 9-8 6-11 4h-16l-11-4-3-2 2-5 10-11 14-9z" fill="#FCE14F"/>
<path transform="translate(206,568)" d="m0 0h14l13 3 11 6 10 10-2 4-9 6-9 3h-12l-11-4-6-4-6-5-8-13v-2l9-3z" fill="#FCE14F"/>
<path transform="translate(165,315)" d="m0 0 7 6 7 11 5 12 2 8v21l-3 11-5-1-8-6-6-7-5-10-2-10v-16l4-12z" fill="#FCE14F"/>
<path transform="translate(198,258)" d="m0 0 3 1 5 13 2 10v22l-3 12-7 14-4-2-8-11-4-11-1-17 4-14 7-11z" fill="#FCE14F"/>
<path transform="translate(247,216)" d="m0 0h2l1 5v14l-3 17-4 11-7 11-7 7-4 2-5-10-2-11v-11l4-12 6-10 9-8z" fill="#FCE14F"/>
<path transform="translate(634,513)" d="m0 0h13l-2 11-4 9-6 8-8 7-12 5h-15l-9-4 4-10 7-9 9-8 12-6z" fill="#FCE14F"/>
<path transform="translate(532,605)" d="m0 0h8l14 3 14 7 5 4-2 5-5 4h-2v2l-13 5-10 1-14-3-10-7-7-9-1-3 8-5 9-3z" fill="#FCE14F"/>
<path transform="translate(589,568)" d="m0 0h14l12 3 2 1-1 5-6 9-7 7-10 5-8 2h-12l-10-4-7-5-1-4 10-10 12-6z" fill="#FCE14F"/>
<path transform="translate(609,258)" d="m0 0 6 4 7 10 5 13v19l-4 13-9 12h-4l-6-11-3-12v-27l4-14z" fill="#FCE14F"/>
<path transform="translate(657,448)" d="m0 0 5 1-1 15-5 15-8 10-10 7-11 3h-11l1-11 5-12 8-11 10-9 14-7z" fill="#FCE14F"/>
<path transform="translate(659,380)" d="m0 0 2 1 2 8v16l-4 15-7 10-7 6-6 4-7 2h-4l-1-2v-13l3-13 7-14 11-12 8-6z" fill="#FCE14F"/>
<path transform="translate(148,380)" d="m0 0 8 4 10 9 8 11 5 11 2 7 1 14-1 6-8-1-10-5-9-9-6-12-2-8v-20z" fill="#FCE14F"/>
<path transform="translate(470,622)" d="m0 0h8l12 3 11 6 10 9 7 8 1 3-11 5-4 1h-15l-13-5-7-6v-2l-3-1-8-16 1-3z" fill="#FCE14F"/>
<path transform="translate(642,315)" d="m0 0h2l5 10 3 12v11l-4 16-6 10-9 8-4 2h-3l-3-10v-22l3-12 8-15z" fill="#FCE14F"/>
<path transform="translate(560,216)" d="m0 0 10 4 9 7 7 10 4 11v19l-4 13-3 3-8-7-2-4h-2l-8-16-3-11-1-7v-18z" fill="#FCE14F"/>
<path transform="translate(386,883)" d="m0 0h1l13 56v5l-5 1-22-5 3-15 9-36z" fill="#265380"/>
<path transform="translate(371,557)" d="m0 0 3 2h54l3-2-1 7-3 2h-52l-4-4z" fill="#805F14"/>
<path transform="translate(323,336)" d="m0 0 5 3 42 1v5h-42l-5-5z" fill="#775A15"/>
<path transform="translate(518,278)" d="m0 0 8 6 12 6 16 4h15l13-2v3l-14 3h-13l-16-4-9-4-11-9z" fill="#916A13"/>
<path transform="translate(402,662)" d="m0 0 6 1 17 9 7 5v2l-6-2-20-11-5 1-23 12-1-3 22-12z" fill="#7F5F16"/>
<path transform="translate(350,627)" d="m0 0 1 3-7 14-7 7-8 6-9 3h-13l-10-2-7-5 3-1 11 4h16l13-5 8-7 6-10z" fill="#8E6814"/>
<path transform="translate(458,627)" d="m0 0 2 2 7 14 5 5 8 5 9 3h15l11-4h4v2l-14 6h-13l-12-3-12-9-7-10-3-8z" fill="#956D15"/>
<path transform="translate(289,278)" d="m0 0 3 1-10 9-14 7-15 3h-12l-13-3-2-1v-2l9 2h24l15-5 11-7z" fill="#8E6814"/>
<path transform="translate(509,616)" d="m0 0 5 5 5 6 8 5 14 3 10-1 10-4h3v-2l9-6-2 4-7 6-4 3-11 3h-13l-11-4-9-7-7-8z" fill="#876517"/>
<path transform="translate(298,617)" d="m0 0 1 3-9 10-9 6-6 2h-15l-10-3-9-6-6-7 4 2 8 6 12 5h15l14-7 8-8z" fill="#806015"/>
<path transform="translate(194,580)" d="m0 0 10 10 5 4 10 4 3 1h12l11-4 7-5h2l-1 3-11 7-7 2h-14l-11-4-9-7-7-9z" fill="#805F15"/>
<path transform="translate(613,581)" d="m0 0 1 2-6 8-8 6-8 4-4 1h-15l-12-5-6-5 1-2 9 6 8 3h12l10-3 8-4 8-8z" fill="#7F6017"/>
<path transform="translate(557,319)" d="m0 0 3 3 4 8 9 10 11 8 12 5 9 3 6 1v2l-10-1-11-3-8-5-13-10-9-12-3-6z" fill="#8A6614"/>
<path transform="translate(301,217)" d="m0 0 1 3-4 11-6 10-8 8-11 7-9 2h-12v-1l15-3 10-4 11-8 7-10z" fill="#8E6916"/>
<path transform="translate(248,325)" d="m0 0 1 2-6 9-9 9-13 9-11 4-13 1v-2l14-3 16-7 11-9 8-10z" fill="#8A6615"/>
<path transform="translate(306,588)" d="m0 0 2 2 4 10 7 9 10 7 9 3 17 2v2h-14l-9-2-11-7-9-9-5-11z" fill="#7D5E16"/>
<path transform="translate(497,600)" d="m0 0 1 3-9 10-5 4-7 4-7 2h-16v-2l16-2 11-4 9-6z" fill="#8D6713"/>
<path transform="translate(170,537)" d="m0 0 7 6 9 6 9 3h14l5-2 4 1-6 3-4 1h-14l-11-4-9-7-4-5z" fill="#866314"/>
<path transform="translate(637,538)" d="m0 0v3l-8 8-10 5-4 1h-15l-9-4 3-1 6 2h15l13-6 8-7z" fill="#7D5E17"/>
<path transform="translate(513,233)" d="m0 0 2 1v2h2l4 6 10 8 11 4 7 2 8 1v1h-13l-11-4-10-7-7-7-3-5z" fill="#826217"/>
<path transform="translate(153,479)" d="m0 0 4 4 7 8 12 6 4 1 13 1v2h-14l-10-4-6-4-7-7-3-5z" fill="#856215"/>
<path transform="translate(518,278)" d="m0 0 8 6 12 6 16 4-3 2-9-1-10-4-12-9z" fill="#936D18"/>
<path transform="translate(589,404)" d="m0 0 3 1 4 6 9 9 9 5 4 2 1 3-8-2v-2l-5-2-12-11-5-7z" fill="#8C6816"/>
<path transform="translate(447,626)" d="m0 0h2l-2 4-14 14-5 3 1-4 16-16z" fill="#8E6814"/>
<path transform="translate(657,422)" d="m0 0 1 3-5 7-10 8-9 4-6 1-1-2 14-5 9-7z" fill="#886515"/>
<path transform="translate(219,403)" d="m0 0 1 3-9 11-9 8-10 5-3-1 13-8 10-9z" fill="#805F15"/>
<path transform="translate(182,306)" d="m0 0 2 3 4 10 8 10 2 1 2-5 6-14 1 3-5 12-4 6-4-2-7-8-5-12z" fill="#976E14"/>
<path transform="translate(298,617)" d="m0 0 1 3-9 10-9 6-8 2 2-4 12-5 9-9z" fill="#8D6815"/>
<path transform="translate(650,356)" d="m0 0 1 4-7 14-10 10-6 3h-2v-2l11-7 7-8z" fill="#826114"/>
<path transform="translate(543,586)" d="m0 0v3l-3 5-15 10-5 2h-3l2-4 11-4 10-9z" fill="#8B6615"/>
<path transform="translate(359,626)" d="m0 0 4 1 17 16 1 4-7-6-12-11z" fill="#826014"/>
<path transform="translate(194,580)" d="m0 0 10 10 5 4 10 4 3 2-5 1-10-5-9-8-4-6z" fill="#846214"/>
<path transform="translate(572,622)" d="m0 0v3l-8 7-4 3-7 2-8-1v-1l12-3 4-2h3v-2l6-4z" fill="#8F6B18"/>
<path transform="translate(263,583)" d="m0 0 5 5 4 5 11 7 7 3 1 2-10-2v-2l-5-2-9-8-4-6z" fill="#846215"/>
<path transform="translate(244,259)" d="m0 0 1 2-5 10-9 10-5 4-4-4-2-5 1-3 4 9 6-4 7-8z" fill="#9D7213"/>
<path transform="translate(154,427)" d="m0 0 7 6 9 6 11 4v2l-9-2-9-5-5-4-4-5z" fill="#826114"/>
<path transform="translate(474,618)" d="m0 0 3 1v2l-7 2h-16v-2l16-2z" fill="#8E6A19"/>
<path transform="translate(248,325)" d="m0 0 1 2-6 9-9 9-7 5-2-1 14-12z" fill="#886414"/>
<path transform="translate(566,264)" d="m0 0 4 4 1 4h2l7 8 4 2 3-4-1 5-3 2-7-5-8-10-2-3z" fill="#986F13"/>
<path transform="translate(290,652)" d="m0 0 5 1 9 3 14 1v1l-16 1-6-2-6-4z" fill="#96701A"/>
<path transform="translate(334,619)" d="m0 0 21 2v2h-14l-9-2z" fill="#8B6818"/>
<path transform="translate(162,367)" d="m0 0 4 4 7 8 10 6v2l-6-2-10-8-5-7z" fill="#8A6513"/>
<path transform="translate(214,550)" d="m0 0 4 1-6 3-4 1h-14v-2l15-1z" fill="#795B15"/>
<path transform="translate(289,278)" d="m0 0 3 1-10 9-10 5-2-1 9-6 8-6z" fill="#8A6513"/>
<path transform="translate(613,581)" d="m0 0 1 2-6 8-8 6-3 2-4-1 4-3 7-4 7-7z" fill="#8D6816"/>
<path transform="translate(515,652)" d="m0 0h4v2l-14 6h-5l4-4z" fill="#956E18"/>
<path transform="translate(557,319)" d="m0 0 3 3 4 8 9 10-2 2-9-11-5-9z" fill="#9C7214"/>
<path transform="translate(153,479)" d="m0 0 4 4 7 8 9 6-2 1-8-5-7-7-3-5z" fill="#836114"/>
<path transform="translate(653,482)" d="m0 0v3l-7 8-10 6-2-1 10-7 6-5z" fill="#7D5D15"/>
<path transform="translate(592,353)" d="m0 0 7 1 12 3v2l-10-1-9-3z" fill="#846318"/>
<path transform="translate(487,657)" d="m0 0h17l-1 2-3 1h-8l-5-1z" fill="#8A6513"/>
<path transform="translate(301,217)" d="m0 0 1 3-4 11-6 10h-3l7-11z" fill="#A67712"/>
<path transform="translate(289,241)" d="m0 0v3l-8 7-5 3h-3v-2l9-5z" fill="#826114"/>
<path transform="translate(513,233)" d="m0 0 2 1v2h2l4 6 9 7v2l-5-2-9-9-3-5z" fill="#886515"/>
<path transform="translate(637,538)" d="m0 0v3l-8 8-6 3-3-1 4-3 7-4z" fill="#886617"/>
<path transform="translate(589,404)" d="m0 0 3 1 4 6 7 7-2 2-7-7-5-7z" fill="#9D7212"/>
<path transform="translate(627,498)" d="m0 0h6v2l-3 1h-14v-2z" fill="#866416"/>
<path transform="translate(555,590)" d="m0 0 7 4 9 4-1 2-5-1-9-6z" fill="#836215"/>
<path transform="translate(620,321)" d="m0 0v3l-7 8-4-2-1-4 2 1v2l4-1z" fill="#8F6914"/>
<path transform="translate(219,403)" d="m0 0 1 3-9 11h-3l6-7z" fill="#956C12"/>
<path transform="translate(298,617)" d="m0 0 1 3-9 10-2-2 8-8z" fill="#996E12"/>
<path transform="translate(182,306)" d="m0 0 2 3 4 10 4 6h-3l-6-12z" fill="#A97913"/>
<path transform="translate(209,595)" d="m0 0 10 3 3 2-5 1-8-4z" fill="#876415"/>
<path transform="translate(650,356)" d="m0 0 1 4-7 14-2-2 5-8z" fill="#AC7B14"/>
<path transform="translate(579,292)" d="m0 0 4 1-1 2-10 1-3-2z" fill="#967019"/>
<path transform="translate(220,273)" d="m0 0 2 2 3 7 5-3 2 1-6 5-4-4-2-5z" fill="#976E13"/>
<path transform="translate(306,588)" d="m0 0 2 2 4 10 3 5h-3l-5-11z" fill="#AB7B14"/>
<path transform="translate(263,583)" d="m0 0 5 5 4 5 3 2v2l-4-2-7-8z" fill="#836114"/>
<path transform="translate(518,278)" d="m0 0 8 6 5 5-5-2-8-7z" fill="#7E5E15"/>
</svg>
