<?xml version="1.0" encoding="UTF-8"?>
<svg version="1.1" viewBox="0 0 826 1263" width="1280" height="1280" xmlns="http://www.w3.org/2000/svg">
<path transform="translate(467,11)" d="m0 0h14l14 4 11 7 8 8 7 11 7 8 11 7 12 4h20l17-4h10l13 3 11 6 10 9 7 11 4 13 3 12 6 11 6 7 14 9 10 3 20 3 10 4 11 8 8 10 5 11 2 8v16l-1 5v18l4 12 7 11 10 9 17 9 7 6 9 13 4 12 1 6v9l-4 16-9 16-3 11v17l3 10 6 11 10 11 7 14 2 7v18l-4 13-7 11-7 7-9 7-6 7-6 12-2 7v19l7 22v18l-5 15-8 11-8 7-12 6-15 5-13 9-8 11-5 12-1 6-1 20-5 15-8 11-8 7-14 7-10 2h-25l-11 3-7 3 1 8 28 118 25 105 28 118 29 122v4l-10-2-71-22-53-16-7 6-15 15-8 7-16 16-8 7-15 15-8 7-16 16-8 7h-2l-28-118-30-126-13-55-5 18-23 97-31 130-12 51-1 3-4-2-10-10-8-7-16-16-8-7-16-16-8-7-15-15-8-7-9-9-31 9-71 22-30 9h-3l2-11 30-126 22-93 26-109 23-97 8-34v-4l-8-3-5-1h-28l-12-3-11-6-9-8-7-11-4-11-1-6-1-18-4-12-6-10-8-8-10-6-18-6-9-5-10-9-7-11-4-13v-18l6-19 1-6v-10l-3-13-6-11-9-10-8-6-8-8-7-14-2-9v-14l3-11 5-10 11-13 6-12 2-7v-20l-4-12-9-16-3-11v-16l4-13 6-10 10-10 18-10 7-6 7-10 4-10 2-11-1-14-1-5v-15l4-13 5-9 8-9 11-7 11-4 19-3 12-5 9-7 6-7 6-12 5-20 6-12 8-9 10-7 15-5h18l11 3 12 1 13-2 9-4 9-6 7-7 9-14 8-8 10-6 14-4h15l13 4 9 5 10 7 10 4 5 1h17l13-4 11-7 9-6 11-4z" fill="#999"/>
<path transform="translate(217,715)" d="m0 0 7 4 10 9 7 11 4 11 7 10 9 8 12 6 7 2h18l13-4 10-5 8-2h19l12 4 10 6 14 14 8 5 12 4 14 1 12-2 14-7 9-8 6-7 11-7 11-4 6-1h10l13 3 13 6 7 2h19l13-4 12-8 6-7 13-26 9-10 5-4h2l12 49 28 118 58 244 14 59v4l-10-2-71-22-53-16-7 6-15 15-8 7-16 16-8 7-15 15-8 7-16 16-8 7h-2l-28-118-30-126-13-55-5 18-23 97-31 130-12 51-1 3-4-2-10-10-8-7-16-16-8-7-16-16-8-7-15-15-8-7-9-9-31 9-71 22-30 9h-3l2-11 30-126 22-93 26-109 23-97 9-37z" fill="#084D91"/>
<path transform="translate(394,112)" d="m0 0h38l18 2 20 3 18 4 22 7 14 5 15 7 25 13 15 10 16 12 11 9 13 12 11 11 9 11 10 12 14 21 12 21 11 24 11 33 6 28 3 25v47l-3 25-6 28-11 33-11 24-13 23-11 16-10 13-4 5-30 30-11 9-16 12-11 7-12 7-4-1-4-4-9 1-14 5-5-1-5-10-2-5v-3l-2 1h-13l-11-4-6-4-7-6-7-12-2-7h2l7 14 3 3v2h2l3 3 2 1v2l5 1 10 3h11l8-2 6-3h2l-6-9-5-6-10-7-8-5-4-7-5 2-8 3-9 1h-10v-3l21-2 10-5 7-6 1-2h2l2-5 4-9 2-9 1-13-12 3-11 6-4 3-3-1-11-25-1-3-103-1-2 8-11 31-3 2-9-10-10-7-11-5-6-1v14l4 13 7 11 7 6 5 3 11 3 15 1v3h-10l-14-1-12 3-11 6-9 7-8 10-1 3 6 2 10 3h11l10-3 8-4 2-3h2l2-4 6-10 2-5h2l-3 9-6 10-5 4-4 4-8 4h-3v7l-7 20-4 1-19-7-16-8-15-8-17-11-16-12-13-11-23-23-11-14-11-15-8-13-8-14-8-18-5-12-7-21-6-25-4-29-1-29 2-28 3-20 5-20 2-3h7l14 3 3 9 4 10 7 9 10 7h2l4-17 1-1 10 1 10 3 3 3-10 8-7 11-4 13v24l11-6 10-9 7-8 7-14 3-9 2-10 2 3 79 21 41 11 11 2 4 2-2 4-10 13-9 14-6 12-5 16-3 25-1 26h144l-1-27-3-4-81-1v-7l4-14 9-14 11-13 22-24 11-14 10-14 6-10 8-18 5-17 2-11h1v8l-4 19-6 15-8 15-8 13h-2l-2 5-1 2 16-2 114-25h4l5 13 6 10 9 10 7 6 11 6v-23l-4-14-7-11v-3l15-4 3 10 6-2 9-8 6-10 3-8 1 3-1 4 16-3 10-2-4-16-6-18-10-24-10-19-11-17-9-12-8-10-7-8v-2l-4-2-7-8-12-11-2-1v-2l-4-2-15-11v-2h-6l-7 9-11 16-2 2-5-1-8-5-8-3-14-2 4 16 6 12 6 7 10 7 9 4 15 2v2h-13l-11-4-2-1v-2l-4-1-4-2-13 19-15 22-13 19-3 1-5-22-5-12-7-11-8-8-14-8-11-4-11-2h-29l-17 5-13 7-10 9-7 10-5 11-5 18-5-5-14-22-15-24-6-8-13 10-13 5h-13v-2l17-3 12-6 7-6 7-10 5-13 2-10-17 3-7 3h-4l-16-26-2-3-5 2-12 8-16 13-13 11-12 12-2 3h-2l-2 4-14 17-13 20-7 11-5-1-5-5 2-6 12-19 12-16 11-13 14-15 15-14 12-10 20-14 23-13 19-9 24-9 25-7 21-4z" fill="#797979"/>
<path transform="translate(467,11)" d="m0 0h14l14 4 11 7 8 8 7 11 7 8 11 7 12 4h20l17-4h10l13 3 11 6 10 9 7 11 4 13 3 12 6 11 6 7 14 9 10 3 20 3 10 4 11 8 8 10 5 11 2 8v16l-1 5v18l4 12 7 11 10 9 17 9 7 6 9 13 4 12 1 6v9l-4 16-9 16-3 11v17l3 10 6 11 10 11 7 14 2 7v18l-4 13-7 11-7 7-9 7-6 7-6 12-2 7v19l7 22v18l-5 15-8 11-8 7-12 6-15 5-13 9-8 11-5 12-1 6-6-4-21-21-5 1h-7l-24-24 2-5 7-8 12-17 8-13 10-18 10-22 11-33 4-17 4-26 1-10v-47l-3-25-6-28-11-33-12-26-12-21-14-20-9-11-12-14-15-15-11-9-15-12-15-10-17-10-22-11-15-6-11-4-25-7-23-4-13-2-12-1h-38l-27 3-25 5-24 7-21 8-25 12-20 12-18 13-11 9-4-1-23-23 1-12-23-23-4 1 6-15 4-17 6-12 8-9 10-7 15-5h18l11 3 12 1 13-2 9-4 9-6 7-7 9-14 8-8 10-6 14-4h15l13 4 9 5 10 7 10 4 5 1h17l13-4 11-7 9-6 11-4z" fill="#E5E5E5"/>
<path transform="translate(422,855)" d="m0 0h5l21 87 26 109 15 64 24 100-1 5-18 18-8 7h-2l-28-118-30-126-13-55-5 18-23 97-31 130-12 51-1 3-4-2-10-10-8-7-16-16-8-7-16-16-8-7-15-15-8-7-9-9-31 9-71 22-30 9h-3l2-11 30-126 22-93 16-67 1 3 8 1 24 6 4-18 1 2 11 2 153 38 5 1 4-18 9-37v-10l19-5z" fill="#084D91"/>
<path transform="translate(570,175)" d="m0 0 6 1v2l4 2 12 9 3 2v2l4 2 15 14 4 5 5 5 11 13 13 18 11 18 8 15 11 26 8 26v6l-18 5h-8v-5l-4 10-7 9-7 6-6 2-4-10-14 4 7 11 4 11 1 5v18l-1 5-6-2-10-7-10-10-7-11-4-10-1-5-68 15-55 12h-11l2-5 1-2h2l2-5 6-10 9-17 5-15 3-15-1 3-5 17-5 12-9 16-10 14-9 11-9 10-7 8-12 13-10 13-6 10-4 14-1 7h81l4 5v27h-144v-26l3-25 7-21 7-12 12-17 11-13 9-10 11-12 11-15 7-11 5-11 4-15v-24l-3-8-4-3-10-1-8 3-3 6-1 5-1 39-5 5h-48l-4-5v-45l4-18 5-12 7-11 9-9 14-8 11-4 8-2h29l14 3 12 5 11 7 8 8 7 11 5 12 5 21 4-4 10-15 15-22 13-19h4l5 3v2l9 3 4 1 13 1v-2h-10l-10-3-10-6-6-5-6-8-5-10-3-11v-5h8l12 3 9 5 3 2 4-1 16-23z" fill="#989898"/>
<path transform="translate(394,112)" d="m0 0h38l18 2 20 3 18 4 22 7 14 5 15 7 25 13 15 10 16 12 11 9 13 12 11 11 9 11 10 12 14 21 12 21 11 24 11 33 6 28 3 25v47l-3 25-2 9-2 1-7-6-1-3v-14l2-26v-20l-2-26-6-31-7-23-8-20-6-13-8-16-12-19-9-12-8-10-7-8v-2l-4-2-7-8-12-11-2-1v-2l-4-2-15-11v-2h-6l-7 9-11 16-2 2-5-1-8-5-8-3-14-2 4 16 6 12 6 7 10 7 9 4 15 2v2h-13l-11-4-2-1v-2l-4-1-4-2-13 19-15 22-13 19-3 1-5-22-5-12-7-11-8-8-14-8-11-4-11-2h-29l-17 5-13 7-10 9-7 10-5 11-5 18-5-5-14-22-15-24-6-8-13 10-13 5h-13v-2l17-3 12-6 7-6 7-10 5-13 2-10-17 3-7 3h-4l-16-26-2-3-5 2-12 8-16 13-13 11-12 12-2 3h-2l-2 4-14 17-13 20-7 11-5-1-5-5 2-6 12-19 12-16 11-13 14-15 15-14 12-10 20-14 23-13 19-9 24-9 25-7 21-4z" fill="#797979"/>
<path transform="translate(217,715)" d="m0 0 7 4 10 9 7 11 4 11 7 10 9 8 12 6 7 2h18l13-4 10-5 8-2h19l12 4 10 6 4 4 15 63 6 25-1 9-12 49-1 2-9-1-153-38-7-2-5 16-8-1-24-6v-7l27-114 13-55z" fill="#113C68"/>
<path transform="translate(397,225)" d="m0 0h29l14 3 12 5 11 7 8 8 7 11 5 12 4 18v26l-3 17-6 18-8 16-10 16-13 16-9 10-7 8-12 13-10 13-6 10-4 14-1 7h81l4 5v27h-144v-26l3-25 7-21 7-12 12-17 11-13 9-10 11-12 11-15 7-11 5-11 4-15v-24l-3-8-4-3-10-1-8 3-3 6-1 5-1 39-5 5h-48l-4-5v-45l4-18 5-12 7-11 9-9 14-8 11-4z" fill="#E5E5E5"/>
<path transform="translate(144,329)" d="m0 0h7l14 3 3 9 4 10 7 9 10 7h2l4-17 1-1 10 1 10 3 3 3-10 8-7 11-4 13v24l11-6 10-9 7-8 7-14 3-9 2-10 2 3 79 21 41 11 11 2 4 2-2 4-10 13-8 13h-7l-50 15-61 18h-6-2l-6 12-8 10-4 2-3-5-3-10-4 2 1 13-2 1h-8l-8-2-9-4-9-8-6-9 5 9 5 7-5 3-17 5-5-1-6-25-4-29-1-29 2-28 3-20 5-20z" fill="#797979"/>
<path transform="translate(334,13)" d="m0 0h5l9 10 46 46 1 4-33 4-29 6-6 2 2 5 24 24 2 4-28 7-25 9-24 11-18 10-15 10-16 12-6 5-4-1-23-23 1-12-23-23-4 1 6-15 4-17 6-12 8-9 10-7 15-5h18l11 3 12 1 13-2 9-4 9-6 7-7 9-14 8-8 10-6z" fill="#C4C4C5"/>
<path transform="translate(486,317)" d="m0 0h1v8l-4 19-6 15-8 15-8 13h-2l-2 5h-2l-2 4-9 11-4 6 9 2 92 26 49 14h3l2-3 8 16 8 11 4 2 4-9 2-7 5 1 1 5-3 11h10l14-4 9-7 6-7 1 2-6 9 12 3 9 3 2 2-1 10-7 19-6 13-8 16-10 17-13 18-4 4-5-1-7-5-4 1-3 3h-2v2l-13 5-5 1-15-1-12-7v-2l5 2 12 5h13l9-4 6-3 7-6 6-10 1-4-10-3-23-1-5-5-4-2-4 2-5-11v-2l-5-2-9-7-4-2-1-4-4-1-14-12-10-8-32-26-14-11-14-12-14-11-13-11-6-5-4 1-8 9-7 8-8 11-4 8-3 12-2 1 1-11 4-10 7-12 12-14 22-24 11-14 10-14 6-10 8-18 5-17z" fill="#656667"/>
<path transform="translate(745,424)" d="m0 0 5 1 42 42-1 4-10 8-6 7-6 12-2 7v19l7 22v18l-5 15-8 11-8 7-12 6-15 5-13 9-8 11-5 12-1 6-6-4-21-21-5 1h-7l-24-24 2-5 7-8 12-17 8-13 10-18 10-22 11-33 4-17 2-1 8 7 20 20 4 1 4-18 5-30z" fill="#C4C4C5"/>
<path transform="translate(348,424)" d="m0 0h6l-8 20-4 15-2 13-1 3-8 6-17 16-8 7-16 15-8 6-4-1-7-5-2 7-2 6-2 11-6 4-11 10-6-1-11-3h-20l-8 2-2 1 2 6 6 8 7 7 9 4 13 2 14-3 10-6-2 4-5 3h-2v2l-5 2-7 1h-8l-9-2h-5l-10 9-4 1-9-10-10-13-10-15-8-13-8-15-7-16-8-22-1-6 24-7v-3l-6-8-3-6 1-2 7 11 8 7 9 4 8 2h10l-2-9 1-5 4-2 3 7 3 8 4-2 9-12 6-12 1 3 16-4 61-18z" fill="#666667"/>
<path transform="translate(339,472)" d="m0 0h1v52l3 3h136l4-2-1 6-4 3h-111l-2 9-11 31-3 2-9-10-10-7-11-5-6-1v14l4 13 7 11 7 6 5 3 11 3 15 1v3h-10l-14-1-12 3-11 6-9 7-8 10-1 3 6 2 10 3h11l10-3 8-4 2-3h2l2-4 6-10 2-5h2l-3 9-6 10-5 4-4 4-8 4h-3v7l-7 20-4 1-19-7-16-8-15-8-17-11-16-12-13-11-16-16-2-3 11-9 2-2 9 1 5 1h8l7-1 5-1v-2l8-5-4 2-5 3-14 3-13-2-10-5-10-10-5-9 1-3 4-2 6-1h20l13 4 5-1 12-11 4-1 2-16 4-8 4 2 4 3 5-1 15-14 8-7 16-15 8-7 6-5h2z" fill="#787878"/>
<path transform="translate(350,118)" d="m0 0h5l4 6 3 2 12 1 4 4 12 91v5l-12 5-11 6-10 9-7 10-5 11-5 18-5-5-14-22-15-24-6-8-13 10-13 5h-13v-2l17-3 12-6 7-6 7-10 5-13 2-10-17 3-7 3h-4l-16-26-2-3-5 2-12 8-16 13-13 11-12 12-2 3h-2l-2 4-14 17-13 20-7 11-5-1-5-5 2-6 12-19 12-16 11-13 14-15 15-14 12-10 20-14 23-13 19-9 24-9 25-7z" fill="#797979"/>
<path transform="translate(628,806)" d="m0 0h3l28 118 29 122 28 118 5 21v4l-10-2-29-9-1-10-26-109-16-68-12-50-24-101-5-22 1-5z" fill="#296AA9"/>
<path transform="translate(422,855)" d="m0 0h5l21 87 26 109 15 64 24 100-1 5-18 18-8 7h-2l-28-118-30-126-13-55-12-50-7-29v-5l19-5z" fill="#296AA9"/>
<path transform="translate(408,357)" d="m0 0 64 1 1 2-5 10-12 17-9 11-9 10-7 8-12 13-10 13-6 10-4 14-1 7h81l4 5v27h-144v-26l3-25 7-21 7-12 12-17 11-13 9-10 11-12z" fill="#C3C3C4"/>
<path transform="translate(394,112)" d="m0 0h38l18 2 20 3 18 4 22 7 14 5 15 7 25 13 15 10 16 12 11 9 13 12 11 11 9 11 10 12 14 21 12 21 11 24 11 33 6 28 3 25v47l-3 25-2 9-2 1-7-6-1-3v-14l2-26v-20l-2-26-6-31-7-23-8-20-6-13-8-16-12-19-9-12-8-10-7-8v-2l-4-2-7-8-12-11-2-1v-2l-4-2-15-11v-2l-5-2-15-10-25-13-19-8-25-8-29-6-9-1-9 1-1 1-8 88-1 7-33 1-7 1-5-36-8-60-3-3-12-1-6-5-1-5 27-4z" fill="#666667"/>
<path transform="translate(174,892)" d="m0 0 1 3 8 1 24 6-8 36-21 88-23 97-12 50v5l-36 11h-3l2-11 30-126 22-93z" fill="#296AA9"/>
<path transform="translate(377,945)" d="m0 0 12 2 20 5 1 4-30 126-31 130-8 33-4-2-10-10-8-7-8-8 5-18 15-64 12-50 15-62 17-71z" fill="#296AA9"/>
<path transform="translate(582,754)" d="m0 0 2 2 10 43v4l-15 4-105 25-47 11h-3l-10-39v-4l16-3 14-7 9-8 6-7 11-7 11-4 6-1h10l13 3 13 6 7 2h19l13-4 12-8 6-7z" fill="#113C69"/>
<path transform="translate(217,715)" d="m0 0 7 4 10 9 7 11 3 10-16 67-14 60-6 24-1 2-8-1-24-6v-7l27-114 13-55z" fill="#275480"/>
<path transform="translate(550,103)" d="m0 0 9 3 19 10 18 11 14 10 13 10 14 12 26 26 9 11 10 13 14 21 12 21 7 14-1 3-6-4-156-156z" fill="#FEFEFE"/>
<path transform="translate(339,505)" d="m0 0h144v18l-2 4-2 1h-136l-4-4z" fill="#989898"/>
<path transform="translate(217,715)" d="m0 0 7 4 10 9 7 11 3 10-16 67-19-5-14-4 1-8 19-80z" fill="#27496B"/>
<path transform="translate(607,715)" d="m0 0h2l12 49 9 38v4l-14 4-17 4-2 1-14-59-2-1 2-5 5-11 5-10 9-10z" fill="#275580"/>
<path transform="translate(409,280)" d="m0 0 10 1 5 4 3 8v24l-4 15-8 16-9 13-9 11-4 3-8-12v-3h-2v-3h-2l-6-10v-2h-32l-4-4v-5l4 2h48l4-4 1-39 3-9 4-4z" fill="#666667"/>
<path transform="translate(374,780)" d="m0 0 7 6 9 7 14 5 10 2 12 49 1 6-30 7-4 1-13-55-6-25z" fill="#255480"/>
<path transform="translate(395,870)" d="m0 0 2 4 15 64v10l-2 5-33-8 4-20 13-53z" fill="#265480"/>
<path transform="translate(271,519)" d="m0 0 4 2 8 7 7 10 6 12 4 15 1 17-1 5-10-3-10-7-8-10-5-11-2-16 2-13z" fill="#989898"/>
<path transform="translate(547,246)" d="m0 0h12l11 4 8 4 9 11 5 10-13 4h-17l-13-3-15-8-8-8 6-7 8-5z" fill="#E4E4E4"/>
<path transform="translate(553,519)" d="m0 0h2l5 13 1 8-1 12-4 11-7 11-8 7-8 4-7 2-1-10 2-17 4-12 6-12 8-10z" fill="#989898"/>
<path transform="translate(267,246)" d="m0 0h12l11 4 9 7 1 3-8 8-16 8-15 3h-14l-11-3-2-2 5-9 10-11 8-5z" fill="#E4E4E4"/>
<path transform="translate(582,469)" d="m0 0 2 1v2l4 2 7 10 4 13v13l-3 13-7 13-8 8h-2l-5-13-3-17v-14l3-15z" fill="#989898"/>
<path transform="translate(243,469)" d="m0 0 3 3 6 13 2 8 1 9v12l-3 17-4 11-1 2-4-2-8-9-6-13-2-13v-10l4-13 7-10z" fill="#C2C2C3"/>
<path transform="translate(572,295)" d="m0 0h16l10 4 10 9 6 8 5 12 1 4v8l-13-1-12-5-13-9-7-7-7-11-3-9z" fill="#E4E4E4"/>
<path transform="translate(238,295)" d="m0 0h16l7 3-3 9-7 11-8 8-14 9-11 4-5 1h-7v-8l4-12 6-10 9-9 10-5z" fill="#E5E5E5"/>
<path transform="translate(228,352)" d="m0 0h10v8l-3 12-5 12-8 11-10 10-12 7h-2l-1-5v-19l4-13 7-11 8-7 8-4z" fill="#E4E4E4"/>
<path transform="translate(588,352)" d="m0 0h10l10 4 9 7 7 10 4 11 1 5v18l-1 5-6-2-10-7-10-10-7-11-4-10-3-12z" fill="#C3C3C4"/>
<path transform="translate(231,411)" d="m0 0 2 1 2 12v10l-3 16-4 11-7 12-8 9-3-1-4-9-2-11v-14l3-12 6-11 7-7z" fill="#C3C3C4"/>
<path transform="translate(594,411)" d="m0 0 12 6 7 7 7 14 2 9v14l-2 11-5 10-4-2-8-10-7-13-4-15-1-8v-9l2-13z" fill="#C3C3C4"/>
<path transform="translate(515,192)" d="m0 0h8l12 3 9 5 10 9 7 11 4 11 1 9h-11l-10-3-10-6-6-5-6-8-5-10-3-11z" fill="#E4E4E4"/>
<path transform="translate(303,192)" d="m0 0h8l-1 10-5 13-8 11-10 8-12 5-6 1h-9l1-9 5-13 7-10 10-9 11-5z" fill="#E4E4E4"/>
<path transform="translate(645,496)" d="m0 0h11l-2 11-7 14-5 6-9 6-10 4h-13l-10-4 1-6 7-11 8-8 9-6 9-4z" fill="#989898"/>
<path transform="translate(206,242)" d="m0 0 4 1 5 13 2 10v20l-4 16-5 9-3 2-5-5-6-9-4-13v-16l4-12 7-11z" fill="#E4E4E4"/>
<path transform="translate(617,242)" d="m0 0 4 1 8 9 5 11 2 7v16l-4 13-6 9-5 5-5-5-5-12-2-10v-20l4-16z" fill="#E4E4E4"/>
<path transform="translate(595,552)" d="m0 0h20l10 3 1 3-5 9-6 7-5 4-9 4-5 2h-13l-14-6-4-3v-2h-2l2-4 8-8 14-7z" fill="#989898"/>
<path transform="translate(170,496)" d="m0 0h11l13 3 7 3v2l5 1v2l4 1 5 5 6 7 5 10v3l-10 4h-13l-10-4-9-7-7-8-6-15z" fill="#989898"/>
<path transform="translate(254,200)" d="m0 0h4l1 5v12l-2 14-5 15-7 11-8 8-4 1-4-8-2-8v-18l5-13 7-9 9-7z" fill="#E4E4E5"/>
<path transform="translate(651,299)" d="m0 0h2l6 13 2 13-2 16-4 10-7 9-7 6-6 2-3-8-1-5v-18l5-17 6-11z" fill="#E4E4E4"/>
<path transform="translate(568,200)" d="m0 0 6 1 10 6 8 9 5 10 2 6v18l-3 10-3 6-5-2-8-8-6-10-5-15-2-14v-11z" fill="#E5E5E5"/>
<path transform="translate(273,589)" d="m0 0h17l12 4 6 4-2 5-4 6-9 7-11 4h-14l-14-5-10-9 2-4 11-7 11-4z" fill="#989898"/>
<path transform="translate(173,299)" d="m0 0 4 2 7 8 7 14 3 9 1 6v17l-3 12-3 1-10-7-6-7-5-10-2-7-1-12 2-13z" fill="#E4E4E4"/>
<path transform="translate(211,552)" d="m0 0h20l13 4 10 6 8 8 1 3h-2l-1 3-8 5-14 3-13-2-10-5-10-10-5-9 1-3 4-2z" fill="#989898"/>
<path transform="translate(157,364)" d="m0 0 5 2 9 7 9 10 8 16 2 8v19l-10-2-9-5-8-8-5-8-3-10-1-7v-11l2-10z" fill="#C3C3C4"/>
<path transform="translate(536,589)" d="m0 0h17l13 4 10 5 6 5v2h-2l-2 4h-2l-1 3-10 5-7 2h-14l-13-5-8-7-5-8 1-3 10-5z" fill="#989898"/>
<path transform="translate(667,364)" d="m0 0 3 1 2 10v11l-2 11-4 9-4 6-8 8-5 3-10 3h-3v-19l5-15 6-10 11-12z" fill="#C3C3C4"/>
<path transform="translate(156,431)" d="m0 0 11 3 12 7 9 8 7 10 6 14 1 9-2 1h-8l-8-2-9-4-9-8-6-10-3-9-1-5z" fill="#C3C3C4"/>
<path transform="translate(669,431)" d="m0 0h1v14l-2 10-7 13-7 7-9 5-11 3h-8l-2-1 1-9 6-14 7-9 5-5 7-6 12-6z" fill="#C3C3C4"/>
<path transform="translate(396,295)" d="m0 0 3 4 4 25 4 30 1 4-10 13-5 4-8-12v-3h-2v-3h-2l-6-10v-2h-32l-4-4v-5l4 2h48l4-4z" fill="#797979"/>
<path transform="translate(423,430)" d="m0 0 1 3h2l13 31 3 7 36 1v1h-80l5-16 7-12 9-11h2z" fill="#989898"/>
<path transform="translate(339,525)" d="m0 0 4 2h136l4-2-1 6-4 3h-134l-5-5z" fill="#45515E"/>
<path transform="translate(199,380)" d="m0 0h32l-2 6-8 10-9 9-12 7h-2l-1-5v-19z" fill="#C3C3C4"/>
<path transform="translate(170,496)" d="m0 0h11l13 3 7 3v2l5 1v2l4 1 2 5-1 2-4 1-30 1-5-11-2-6z" fill="#C2C2C3"/>
<path transform="translate(486,317)" d="m0 0h1v8l-4 19-6 15-8 15-8 13h-2l-2 5h-2l-2 4-9 11-9 10-7 8-6 7-7 8-8 11-4 8-3 12-2 1 1-11 4-10 7-12 12-14 22-24 11-14 10-14 6-10 8-18 5-17z" fill="#4A5561"/>
<path transform="translate(254,502)" d="m0 0h1v12l-3 17-4 11-1 2-4-2-8-9-6-13-1-6 26-1z" fill="#989898"/>
<path transform="translate(582,469)" d="m0 0 2 1v2l4 2 7 10 3 8v5l-12 1h-14l1-8 3-10z" fill="#C1C1C2"/>
<path transform="translate(427,644)" d="m0 0h11l2 7 1 12-4-1-17-9-5-3-6 1-10 6-10 5-4 1 2-4 17-9 7-4z" fill="#777"/>
<path transform="translate(339,336)" d="m0 0 4 2h48l5-2-1 6-5 3h-47l-4-4z" fill="#404F5D"/>
<path transform="translate(239,355)" d="m0 0 19 5 106 31-4 1-83-22-37-10z" fill="#87898A"/>
<path transform="translate(157,364)" d="m0 0 5 2 9 7 6 6v2l-8 2h-15v-8l2-10z" fill="#E3E3E3"/>
<path transform="translate(588,362)" d="m0 0 2 3v2l-68 15-41 9h-5l4-2 93-22 15-3z" fill="#868889"/>
<path transform="translate(300,226)" d="m0 0 4 4 13 21 15 24 7 10 1 4-4-2-10-15-22-34-6-10z" fill="#87898A"/>
<path transform="translate(412,574)" d="m0 0h2l8 17v3l-15 1-3-1 1-5z" fill="#C4C4C5"/>
<path transform="translate(588,352)" d="m0 0h10l10 4 5 5-3 1-21 1-1-3z" fill="#E4E4E4"/>
<path transform="translate(531,231)" d="m0 0 3 1-7 11-11 15-11 16-14 20-4 3 1-5 4-4 10-15 15-22 13-19z" fill="#868889"/>
<path transform="translate(466,611)" d="m0 0h2l7 14 3 3v2h2l3 3 2 1v2l5 1 10 3h11l8-2 4-2 4 1-12 6-3 1h-13l-11-4-6-4-7-6-7-12z" fill="#585F66"/>
<path transform="translate(263,168)" d="m0 0 3 1 10 16 7 11v2l2 1-5 2-13-20-4-6v-2l-3-1 1-3z" fill="#87898A"/>
<path transform="translate(358,611)" d="m0 0h2l-3 9-6 10-5 4-4 4-8 4-4 1h-17l-11-4-3-3 6 1 10 3h11l10-3 8-4 2-3h2l2-4 6-10z" fill="#555D65"/>
<path transform="translate(298,261)" d="m0 0h2l-2 4-7 6-10 6-14 4h-23l-10-3v-2l9 1 4 1h14l15-3 16-8z" fill="#5D646B"/>
<path transform="translate(526,261)" d="m0 0 4 2 7 6 15 7 10 2h17l8-2h5v2l-10 3h-23l-12-3-10-5v-2l-5-2-6-6z" fill="#4D5762"/>
<path transform="translate(409,280)" d="m0 0 10 1 5 4 2 4v6l-4-5-6-3h-7l-7 2-4 6h-1l1-8 5-5z" fill="#495663"/>
<path transform="translate(685,338)" d="m0 0 2 4v4l-21 5-7 1-2-1v-7l2-5 1 3-1 4 16-3 10-2z" fill="#868788"/>
<path transform="translate(411,646)" d="m0 0 5 1 23 12 2 4-4-1-17-9-5-3-6 1-10 6-10 5-4 1 2-4 17-9z" fill="#4A5560"/>
<path transform="translate(565,301)" d="m0 0 3 4 6 10 9 10 14 9 10 4 14 2v3h-8l-13-4-13-7-12-11-7-11-3-6z" fill="#5F656B"/>
<path transform="translate(258,306)" d="m0 0 1 2-7 12-6 6h-2l-1 3-7 5-12 6-11 3h-8v-3l16-3 10-4 13-9 9-10z" fill="#5A6169"/>
<path transform="translate(424,296)" d="m0 0 2 1 1 6v14l-4 15-2 3-1-3 1-20 2-13z" fill="#7A7A7A"/>
<path transform="translate(144,329)" d="m0 0h7l14 3 2 7h-7l-11-3-7-1 1-5z" fill="#868889"/>
<path transform="translate(518,600)" d="m0 0 5 5 4 5 8 5 9 3h14l14-5 7-6 1-2h2l-2 5-15 10-15 2-11-2-9-5-9-8-3-5z" fill="#525B64"/>
<path transform="translate(196,343)" d="m0 0 11 2 16 5 3 3-7 3-6-3-17-4z" fill="#87898A"/>
<path transform="translate(307,600)" d="m0 0 2 1-7 9-7 6-11 5-11 1-12-2-11-7-5-5-1-2 4 2 6 5 14 5h14l11-4 9-7z" fill="#4E5862"/>
<path transform="translate(508,579)" d="m0 0 1 2-6 10-12 11-10 4-9 1h-10v-3l21-2 10-5 7-6 1-2h2l2-5z" fill="#575F66"/>
<path transform="translate(302,219)" d="m0 0v3l-8 10-11 7-9 3h-13v-2l17-3 12-6 7-6z" fill="#555E67"/>
<path transform="translate(392,649)" d="m0 0h8l4 2-18 10h-1l1-10z" fill="#777"/>
<path transform="translate(616,572)" d="m0 0v3l-3 3h-2v2l-13 5-5 1-15-1-12-7v-2l5 2 12 5h13l9-4 6-3z" fill="#46525F"/>
<path transform="translate(523,219)" d="m0 0 6 5 5 5 9 6 7 3 15 2v2h-13l-11-4-2-1v-2l-4-1-10-10z" fill="#5C6269"/>
<path transform="translate(261,574)" d="m0 0v3l-6 4h-2v2l-5 2-7 1h-8l-11-3-8-5 2-1 9 4 13 2 14-3z" fill="#4A5561"/>
<path transform="translate(570,175)" d="m0 0 4 1h-2l-2 4-11 16-5 7-5 2-1-2 5-5 14-20z" fill="#87898A"/>
<path transform="translate(367,535)" d="m0 0h2l-3 12-10 28-3 3v-4l12-33z" fill="#87898A"/>
<path transform="translate(486,317)" d="m0 0h1v8l-4 19-6 15-2 2-3 1 2-5 8-21z" fill="#64696F"/>
<path transform="translate(324,591)" d="m0 0 4 2 10 7 11 3 15 1v3h-10l-10-1v-2l-5-1-10-6z" fill="#4D5862"/>
<path transform="translate(427,644)" d="m0 0h11l1 4-21 1-4-3z" fill="#858788"/>
<path transform="translate(570,236)" d="m0 0 2 2 4 10 7 10 8 7 2 1 2-6 2-2-1 6-3 5-5-2-10-11-7-14z" fill="#6C6F72"/>
<path transform="translate(191,292)" d="m0 0 2 2 6 12 4 5 3 1 5-8 4-10 1 3-5 12-4 7-4-1-7-9-5-11z" fill="#6A6D70"/>
<path transform="translate(401,645)" d="m0 0 10 1-4 3-7 1h-13v-4z" fill="#868889"/>
<path transform="translate(330,642)" d="m0 0h1v7l-7 20-4 1 7-21 1-6z" fill="#868889"/>
<path transform="translate(413,646)" d="m0 0 16 8 11 6 1 3-4-1-17-9-8-5z" fill="#44515E"/>
<path transform="translate(523,636)" d="m0 0 4 1-12 6-3 1h-13l-1-3 19-2z" fill="#525A63"/>
<path transform="translate(592,333)" d="m0 0 5 1 10 4 14 2v3h-8l-13-4-8-5z" fill="#5C636A"/>
<path transform="translate(468,535)" d="m0 0 3 1 7 17 6 13-3 1-5-10-7-17z" fill="#87898A"/>
<path transform="translate(228,386)" d="m0 0 1 2-8 11-10 9-11 6h-2v-2l11-6 10-9 7-8z" fill="#4D5761"/>
<path transform="translate(258,306)" d="m0 0 1 2-7 12-6 6h-2l-1 3-7 5-4-2 11-7 7-7z" fill="#5F656B"/>
<path transform="translate(634,292)" d="m0 0 1 3-7 14-6 7h-3l-8-16 1-3 7 14 2 1 5-5 6-10z" fill="#696C70"/>
<path transform="translate(597,386)" d="m0 0 5 5 7 8 8 7 11 6v2l-6-2-7-4v-2l-5-2-7-7-6-9z" fill="#5D6166"/>
<path transform="translate(557,560)" d="m0 0 1 2-6 11-8 8-10 6-8 2 1-3 11-4 10-8 7-11z" fill="#595F65"/>
<path transform="translate(665,407)" d="m0 0 1 2-7 9-4 3h-2v2l-5 3-6 2h-6l3-3 10-3 8-6z" fill="#4F5963"/>
<path transform="translate(160,407)" d="m0 0 12 12 10 5 7 2 1 2-8-1-7-3-2-1v-2l-5-2-7-8z" fill="#4D5762"/>
<path transform="translate(253,242)" d="m0 0 1 2-6 12-10 11-5 2-4-8 1-3 3 6v2l6-4 8-9z" fill="#717375"/>
<path transform="translate(580,605)" d="m0 0h2l-2 5-15 10-15 2v-2l7-1 12-5 6-3z" fill="#4E5862"/>
<path transform="translate(368,610)" d="m0 0 4 1 17 16 1 4-8-6-14-14z" fill="#4E5761"/>
<path transform="translate(455,610)" d="m0 0 3 1-17 17-5 3 1-4 9-9 8-7z" fill="#4C5660"/>
<path transform="translate(628,354)" d="m0 0 4 1-1 3-16 4-2-3 7-3z" fill="#87898A"/>
<path transform="translate(634,360)" d="m0 0h10l2 2-9 6-3-1-1-6z" fill="#C2C2C3"/>
<path transform="translate(234,276)" d="m0 0 9 1 4 1 17 1-1 2h-19l-10-3z" fill="#4C5762"/>
<path transform="translate(515,642)" d="m0 0h2l6 16 6 2-3 2-5-1-5-10-2-5z" fill="#868889"/>
<path transform="translate(548,652)" d="m0 0 6 1 5 7-5 1-5-5h-9l2-2z" fill="#87898A"/>
<path transform="translate(299,636)" d="m0 0 6 1 10 3 13 1v2h-15l-11-4z" fill="#4C5661"/>
<path transform="translate(187,530)" d="m0 0 5 1 9 4 2 1h16v2l-6 1h-8l-10-3-8-5z" fill="#3F4E5D"/>
<path transform="translate(159,458)" d="m0 0 3 3 6 9 7 6 6 3v2l2 1-5-1-11-8-6-9z" fill="#565D64"/>
<path transform="translate(526,261)" d="m0 0 4 2 7 6 10 5-4 2-6-3v-2l-5-2-6-6z" fill="#61676D"/>
<path transform="translate(158,260)" d="m0 0 5 2 5 4-1 4-5-1-5-5z" fill="#868889"/>
<path transform="translate(508,579)" d="m0 0 1 2-6 10-12 11-6 1 3-3 10-7 3-4h2l2-5z" fill="#545B63"/>
<path transform="translate(261,574)" d="m0 0v3l-6 4h-2v2l-5 2h-7l-3-2 14-3z" fill="#4E5862"/>
<path transform="translate(358,611)" d="m0 0h2l-3 9-6 10-3 2-2-2h2l2-4 6-10z" fill="#6C6D6F"/>
<path transform="translate(600,534)" d="m0 0 8 1 2 1h16v2l-13 1-12-3z" fill="#43505E"/>
<path transform="translate(466,611)" d="m0 0h2l7 14 3 3v2l2 1-3 1-7-10z" fill="#6C6D6E"/>
<path transform="translate(616,572)" d="m0 0v3l-3 3h-2v2l-9 4-5-1 14-7z" fill="#505963"/>
<path transform="translate(307,600)" d="m0 0 2 1-7 9-7 6-6 2v-2l10-6 5-6z" fill="#505862"/>
<path transform="translate(282,579)" d="m0 0 5 2 5 3 8 3v2l-7-1-11-7z" fill="#4A5560"/>
<path transform="translate(400,652)" d="m0 0m-1 1m-2 1h2v3l-10 5-4 1 2-4z" fill="#45525F"/>
<path transform="translate(349,604)" d="m0 0h15v3h-10l-5-1z" fill="#555D65"/>
<path transform="translate(547,238)" d="m0 0 18 2v2h-13l-4-1z" fill="#4B5661"/>
<path transform="translate(663,464)" d="m0 0 1 2-5 7-11 8-2-1 11-9z" fill="#535B63"/>
<path transform="translate(174,356)" d="m0 0 7 6 10 7-3 1-8-6-6-6z" fill="#545C65"/>
<path transform="translate(651,356)" d="m0 0 2 1-10 10-5 3-3-1 11-8z" fill="#515962"/>
<path transform="translate(592,333)" d="m0 0 5 1 10 4v2l-7-1-8-5z" fill="#515A64"/>
<path transform="translate(541,580)" d="m0 0 2 1-9 6-8 2 1-3 11-4z" fill="#485460"/>
<path transform="translate(228,386)" d="m0 0 1 2-8 11-4 3v-3l9-10z" fill="#5F6368"/>
<path transform="translate(258,306)" d="m0 0 1 2-7 12-4 3v-3l8-11z" fill="#64686D"/>
<path transform="translate(587,276)" d="m0 0h5v2l-10 3-4-1 1-2z" fill="#596068"/>
<path transform="translate(640,527)" d="m0 0 2 1-7 6-6 3-2-1 3-3 9-5z" fill="#505963"/>
<path transform="translate(215,294)" d="m0 0 1 3-5 12-3 5-3-1 4-5z" fill="#717274"/>
<path transform="translate(302,219)" d="m0 0v3l-8 10-3-1 5-5z" fill="#64696D"/>
<path transform="translate(495,599)" d="m0 0 4 2 3 9-4-2-4-8z" fill="#87898A"/>
<path transform="translate(186,482)" d="m0 0 15 1v2h-10l-5-1z" fill="#45525F"/>
<path transform="translate(612,404)" d="m0 0 5 2 11 6v2l-6-2-7-4v-2l-3-1z" fill="#495460"/>
<path transform="translate(611,297)" d="m0 0 2 2 6 12 2 3-2 2-8-16z" fill="#707173"/>
<path transform="translate(229,258)" d="m0 0 3 4 1 4 5-3h2l-2 4-5 2-4-8z" fill="#666A6E"/>
<path transform="translate(160,407)" d="m0 0 5 5 6 7h-3l-7-8z" fill="#5B6166"/>
<path transform="translate(187,530)" d="m0 0 5 1 9 4-1 2-5-1-8-5z" fill="#4D5762"/>
<path transform="translate(665,407)" d="m0 0 1 2-7 9-3 2v-3l7-7z" fill="#5A6066"/>
<path transform="translate(565,301)" d="m0 0 3 4 6 10v3l-4-4-5-10z" fill="#6A6D6F"/>
<path transform="translate(495,285)" d="m0 0v3l-6 8-2 1 1-5 5-5z" fill="#87898A"/>
<path transform="translate(271,566)" d="m0 0 5 5 6 8-4-2-6-7z" fill="#535B63"/>
<path transform="translate(478,631)" d="m0 0 5 2 2 1v2h3l1 4-6-3z" fill="#505962"/>
<path transform="translate(268,277)" d="m0 0 4 1v2l-9 1-2-3z" fill="#62696F"/>
</svg>
