<?xml version="1.0" encoding="UTF-8"?>
<svg version="1.1" viewBox="0 0 847 1287" width="1280" height="1280" xmlns="http://www.w3.org/2000/svg">
<path transform="translate(466,26)" d="m0 0h14l12 3 11 6 10 9 10 15 10 9 10 5 8 2h20l16-4h11l12 3 12 6 9 8 7 11 4 10 4 16 5 10 8 9 11 7 12 4 20 3 16 8 10 10 6 10 3 9 1 6v11l-2 14 1 13 5 14 7 9 9 8 15 8 10 9 6 8 5 12 1 4v19l-4 12-7 12-4 12v20l4 12 7 11 9 10 5 10 3 11v14l-3 12-6 11-7 8-10 8-8 9-5 10-3 14 1 14 6 18 1 5v14l-3 11-6 12-11 11-8 5-20 7-11 7-8 9-6 12-2 8-1 20-3 11-6 12-6 7-11 8-13 5-6 1h-26l-13 4-4 2 1 10 29 121 27 114 29 122 25 105v3l-10-2-68-21-56-17-7 6-9 9-8 7-15 15-8 7-16 16-8 7-16 16-8 7-6 6h-2l-12-50-23-96-28-118-8-33-1-2-28 118-31 130-12 51-4-2-15-14-13-13-8-7-15-15-8-7-16-16-8-7-15-15-21 6-88 27-23 7h-3l1-8 30-126 22-93 30-126 28-118v-3l-13-4h-28l-12-3-10-5-11-10-7-11-4-14-1-18-3-11-5-10-9-10-10-6-10-4-14-5-9-7-7-7-8-16-2-11 1-14 6-19v-20l-4-12-7-11-8-7-10-8-6-8-4-8-3-10v-18l5-15 10-13 6-8 5-12 1-4v-18l-3-10-6-11-5-10-2-7v-19l4-13 6-9 6-7 10-7 10-5 10-9 6-9 4-10 1-4v-18l-1-5v-19l4-12 7-11 7-7 9-6 12-4 19-3 10-4 11-8 8-11 4-8 5-21 6-11 9-10 11-7 13-4h17l12 3 12 1 13-2 14-7 10-9 9-14 10-10 14-7 8-2h16l13 4 10 6 11 7 12 4h18l13-4 11-7 9-6 10-4z" fill="#AF7055"/>
<path transform="translate(392,140)" d="m0 0h42l25 3 24 5 23 7 22 9 16 8 18 10 12 8 12 9 13 11 12 11 3 3v2l4 2 6 8-1 1 6 4v2h2l15 20 5 9 3 5 5 8 4 10v3h3l6 13 6 17 5 15 6 26 3 20 1 11v41l-3 25-5 24-6 21-10 25-11 22-12 19-10 14-11 13-9 10-16 16-11 9-13 10-15 10-16 9-16 8-13 6-20 7-28 7-11 1h-2l-4 2-21 2h-31l-27-3-22-4-25-7-19-7-27-12-20-12-14-10-14-11-13-12-14-14-9-11-8-10-14-21-11-19-11-25-9-27-6-25-3-23-1-14v-27l2-23 4-24 7-26 10-26 9-19 13-22 13-18 11-13 9-10 17-17 11-9 13-10 19-12 12-7 12-5 18-8 24-8 25-6 20-3z" fill="#9F5035"/>
<path transform="translate(216,730)" d="m0 0 9 5 9 9 7 12 5 12 8 10 11 8 10 4 16 2 12-2 12-5 10-4 4-1h18l10 3 11 6 7 6 7 8 10 6 10 4 6 1h13l12-3 11-6 9-8 5-6 10-7 14-5 10-1 13 2 12 5 12 4 14 1 11-2 12-5 10-8 7-10 9-20 9-10 6-5 2 1 12 50 28 117 23 97 29 122 20 84v3l-10-2-68-21-56-17-7 6-9 9-8 7-15 15-8 7-16 16-8 7-16 16-8 7-6 6h-2l-12-50-23-96-28-118-8-33-1-2-28 118-31 130-12 51-4-2-15-14-13-13-8-7-15-15-8-7-16-16-8-7-15-15-21 6-88 27-23 7h-3l1-8 30-126 22-93 30-126 28-118z" fill="#094B8C"/>
<path transform="translate(165,144)" d="m0 0 7 6 17 17 1 5-2 3h-2l-2 4-15 15-9 11-5 6-4 9 1 5 22 22-1 5-10 15-10 18-11 23-9 25-6 22-4 22-2 17-1 16v21l2 25 4 26 5 19 8 24 10 23 11 21 16 24 11 14 10 11 7 8 9 9 8 7 15 12 17 12 18 11 16 8 18 8 30 10 21 5 27 4 13 1h33l29-3 25-5 24-7 21-8 25-12 20-12 10-5 4-1 22 22 6-1 8-4 13-11 10-9 10-10h2l1-3 4-1 5 3 25 25 4 2v11l-5 13-6 8-5 5-7 6-12 5-9 2h-26l-13 4-4 2-2 2-5 3-8 8-14 28-8 9-11 7-11 4-15 1-14-3-17-7-14-2-13 2-12 5-11 9-7 8-9 6-12 5-6 1h-13l-12-3-11-6-10-9-5-5-9-6-10-4-4-1h-18l-12 4-11 5-14 3-13-1-12-4-11-7-9-10-12-24-9-10-11-7-13-4h-28l-12-3-10-5-11-10-7-11-4-14-1-18-3-11-5-10-9-10-10-6-10-4-14-5-9-7-7-7-8-16-2-11 1-14 6-19v-20l-4-12-7-11-8-7-10-8-6-8-4-8-3-10v-18l5-15 10-13 6-8 5-12 1-4v-18l-3-10-6-11-5-10-2-7v-19l4-13 6-9 6-7 10-7 10-5 10-9 6-9 4-10 1-4v-18l-1-5v-19l4-12 7-11 7-7 9-6 12-4 19-3 10-4 11-8z" fill="#913E27"/>
<path transform="translate(216,730)" d="m0 0 9 5 9 9 7 12 5 12 8 10 11 8 10 4 16 2 12-2 12-5 10-4 4-1h18l10 3 11 6 6 5 12 52 5 19 9 40v3h-10l-13 53-16 67-20 84-28 118-2 3-12-11-13-13-8-7-16-16-8-7-15-15-21 6-88 27-23 7h-3l1-8 30-126 22-93 30-126 28-118z" fill="#094B8C"/>
<path transform="translate(466,26)" d="m0 0h14l12 3 11 6 10 9 10 15 10 9 10 5 8 2h20l16-4h11l12 3 12 6 9 8 7 11 4 10 4 16 5 10 8 9 11 7 12 4 20 3 16 8 10 10 6 10 3 9 1 6v11l-2 14 1 13 5 14 7 9 9 8 15 8 10 9 6 8 5 12 1 4v19l-4 12-7 12-4 12v20l4 12 7 11 9 10 5 10 3 11v14l-1 5-7-6-51-51-4-2 1 11v18l-2 27-4 26-6 26-6 19-2 1-8-7-20-20-2-1 1-8 5-24 3-25v-45l-3-25-5-24-7-24-10-25-8-16-10-18-8-12-12-16-9-11-12-13-10-10-11-9-15-12-15-10-19-11-27-13-22-8-26-7-30-5-11-1h-45l-25 3-28 6-4-1-27-27-1-3 10-4 26-7 28-5 19-2 16-1h17l12 1-4-6-30-30-1-4h20l13-4 11-7 9-6 10-4z" fill="#DCA17A"/>
<path transform="translate(416,836)" d="m0 0h2l4 13 27 113 55 231 9 38v3l-13 13-8 7-6 6h-2l-12-50-23-96-28-118-8-33-1-2-28 118-31 130-12 51-4-2-15-14-10-10 1-8 28-118 12-51 12-50 22-91 3-9 10 1-10-43-4-16v-6z" fill="#2968A5"/>
<path transform="translate(402,262)" d="m0 0h22l18 4 12 6 12 11 7 10 6 16 2 11v39l-4 18-6 11-9 10h-2v2h2v2l4 2 6 7 6 12 3 11 1 7v51l-3 15-5 14h-2l-1 4-1 2h-2l-2 5-7 7-4-1-8-7-29-29-1-3 6-5 2-6 1-8v-29l-2-13-5-7-7-3-24-1-3-4v-44l4-4 24-1 8-4 3-8v-37l-4-7-4-2h-10l-4 1-2 6-1 1-1 28-2 4-2 1h-46l-3-2-1-3v-23l2-17 5-15 7-12 11-11 15-8 11-3z" fill="#DBA079"/>
<path transform="translate(165,144)" d="m0 0 7 6 17 17 1 5-2 3h-2l-2 4-15 15-9 11-5 6-4 9 1 5 22 22-1 5-10 15-10 18-11 23-9 25-6 22-4 22-2 17-1 16v27l-5-2-31-31-1-2-1-11v-33l-7-8-44-44 5-10 8-9 10-7 10-5 10-9 6-9 4-10 1-4v-18l-1-5v-19l4-12 7-11 7-7 9-6 12-4 19-3 10-4 11-8z" fill="#9F5035"/>
<path transform="translate(661,643)" d="m0 0 6 2 26 26 4 2v11l-5 13-6 8-5 5-7 6-12 5-9 2h-26l-13 4-4 2-2 2-5 3-8 8-14 28-8 9-11 7-11 4-15 1-14-3-17-7-4-4-7-8-17-17-2-1h-33l-11-1-8-7-26-26-1-3 33-1 29-3 25-5 24-7 21-8 25-12 20-12 10-5 4-1 22 22 6-1 8-4 13-11 10-9 10-10h2l1-3z" fill="#9F5035"/>
<path transform="translate(618,788)" d="m0 0 5 1 26 109 23 97 29 122 20 84v3l-10-2-29-9-1-8-58-244-23-97-11-48 4-2z" fill="#2968A5"/>
<path transform="translate(462,92)" d="m0 0 11 1 23 5 27 8 25 10 23 11 22 13 17 12 14 11 14 12 23 23 9 11 12 15 14 21 13 23 10 21 11 30 8 30 3 17v5l-5-2-42-42-4-2-10-25-8-16-10-18-8-12-12-16-9-11-12-13-10-10-11-9-15-12-15-10-19-11-27-13-16-6-4-6-41-41z" fill="#F1B98B"/>
<path transform="translate(186,855)" d="m0 0 1 2 11 2 20 5 1 2-11 48-29 122-28 118-8 34v5l-36 11h-3l1-8 30-126 22-93z" fill="#2968A5"/>
<path transform="translate(243,764)" d="m0 0 4 5 7 9 11 8 10 4 16 2 12-2 12-5 10-4 4-1h18l10 3 11 6 6 5 12 52 5 19 1 11-10-1-149-37-6-3 1-9 14-60z" fill="#14385E"/>
<path transform="translate(691,325)" d="m0 0 5 3 41 41 4 2-5-26v-7l4 1 34 34 4 2 4 18 6 12 9 10 7 11 4 14v14l-1 5-7-6-51-51-4-2 1 11v18l-2 27-4 26-6 26-6 19-2 1-8-7-20-20-2-1 1-8 5-24 3-25v-45l-3-25-5-24-6-21z" fill="#DBA079"/>
<path transform="translate(439,39)" d="m0 0h2l7 8 47 47v3h-7l-26-5 4 6 41 41 1 3-10-2-22-6-30-5-11-1h-45l-25 3-28 6-4-1-27-27-1-3 10-4 26-7 28-5 19-2 16-1h17l12 1-4-6-30-30-1-4h20l13-4z" fill="#DBA079"/>
<path transform="translate(281,158)" d="m0 0 3 2v11l-21 12-16 11-16 13-12 11-15 15-9 11-10 13-10 15-12 21-10 22-7 19-7 26-4 24-2 23v27l3 31 5 23 6 21 8 21 8 18 14 24 12 17 7 9 12 14 18 18 11 9 16 12 19 12 13 7-1 13-5-1-17-9-19-13-13-10-11-9-15-14-7-7-7-8-13-16-16-24-10-18-9-19-9-24-6-21-4-20-3-23-1-16v-21l2-26 4-24 6-24 8-23 9-20 12-23 14-21 11-14 12-14 20-20 11-9 13-10 18-12 16-9z" fill="#F1B88B"/>
<path transform="translate(347,449)" d="m0 0h45l4 3 1 3 1 30 3 11 8 2h9l2 5 37 37-8 5-15 5-14 2h-15l-14-2-16-6-10-7-8-8-8-14-5-16-1-7v-39z" fill="#AF7055"/>
<path transform="translate(216,730)" d="m0 0 9 5 9 9 7 12 2 6-1 8-13 56-9 38-2 1-31-8 1-10 27-114z" fill="#285076"/>
<path transform="translate(412,588)" d="m0 0 3 3 11 23v2l32 4-1 3-8 7-6 6h-2l-2 4-2 2v9l2 7 2 16-6-2-20-11-6 1-23 12h-1v-8l4-20-1-5-12-11-9-9v-1l26-4h6l2-5z" fill="#AF7055"/>
<path transform="translate(736,338)" d="m0 0 4 1 34 34 4 2 4 18 6 12 9 10 7 11 4 14v14l-1 5-7-6-51-51-4-2-2-16-2-15-5-24z" fill="#CC906D"/>
<path transform="translate(427,451)" d="m0 0 5 3 44 44 4 2-2 10-4 11h-2l-1 4-1 2h-2l-2 5-7 7-4-1-8-7-29-29-1-3 6-5 2-6 1-8z" fill="#CB8F6B"/>
<path transform="translate(439,39)" d="m0 0h2l7 8 47 47v3h-7l-31-6-20-2-4-1-4-6-30-30-1-4h20l13-4z" fill="#CC906C"/>
<path transform="translate(177,573)" d="m0 0 4 5 13 18 10 11 7 8 15 15 11 9 16 12 19 12 13 7-1 13-5-1-17-9-19-13-13-10-11-9-15-14-7-7-7-8-13-16-2-4 1-17z" fill="#DBA079"/>
<path transform="translate(281,158)" d="m0 0 3 2v11l-21 12-16 11-16 13-12 11-15 15-9 11-10 13-7 10-2-2v-15l-2-1 11-14 12-14 20-20 11-9 13-10 18-12 16-9z" fill="#DBA079"/>
<path transform="translate(607,730)" d="m0 0 2 1 12 50 1 7-29 7-5-1-6-27 5-11 7-14 11-11z" fill="#285076"/>
<path transform="translate(243,483)" d="m0 0 4 5 5 12 3 17v10l-2 14-5 15-1 2-4-2-7-7-7-14-2-7v-19l4-11 5-8z" fill="#AF7055"/>
<path transform="translate(510,566)" d="m0 0 2 3v9l-2 11-6 12-5 6-10 7-10 4-13 1-4-1 2-10 9-17 11-12 11-8 11-4z" fill="#AF7055"/>
<path transform="translate(553,533)" d="m0 0 3 3 4 11 1 10-2 12-5 12-9 10-8 6-10 4h-2v-17l3-15 5-12 7-12 11-11z" fill="#AF7055"/>
<path transform="translate(271,533)" d="m0 0 7 4 8 9 8 14 5 16 2 16-1 9-10-3-10-7-8-9-5-11-2-7v-15l3-10z" fill="#AF7055"/>
<path transform="translate(314,567)" d="m0 0 9 1 12 6 11 9 9 12 5 10 3 9v4l-10 1-12-3-11-6-8-8-6-11-2-8z" fill="#AF7055"/>
<path transform="translate(547,260)" d="m0 0h12l13 5 10 8 7 10 2 6-3 2-12 2h-16l-14-4-12-7-8-7 1-4 9-7z" fill="#F0B88A"/>
<path transform="translate(582,484)" d="m0 0 7 6 7 11 3 12v11l-3 13-6 11-9 10-3-1-4-10-3-14v-22l2-10 8-16z" fill="#AF7055"/>
<path transform="translate(267,260)" d="m0 0h11l11 4 8 6 3 4-7 7-12 7-9 3-11 2h-15l-10-3-2-2 4-8 9-10 5-4 8-4z" fill="#F0B88B"/>
<path transform="translate(572,309)" d="m0 0h15l9 3 9 7 7 8 5 10 3 11v6h-9l-15-5-12-8-5-4-8-10-6-12 1-4z" fill="#DBA079"/>
<path transform="translate(238,309)" d="m0 0h15l8 3-2 6-5 10-11 12-12 8-11 4-8 2h-7l2-13 4-10 8-11 11-8z" fill="#DBA079"/>
<path transform="translate(588,365)" d="m0 0 13 2 10 5 9 9 6 12 3 11v15l-1 6-6-1-9-6-9-8-7-10-6-13-3-12z" fill="#DBA079"/>
<path transform="translate(236,365)" d="m0 0 2 1-2 16-6 16h-2l-1 4-1 2h-2l-2 5-4 4h-2l-2 4-5 4-7 4h-4l-1-2v-21l4-13 7-11 8-7 8-4z" fill="#DBA079"/>
<path transform="translate(703,461)" d="m0 0 30 30 4 2-2 11-7 23-2 1-8-7-20-20-2-1 1-8 5-24z" fill="#CC906C"/>
<path transform="translate(337,96)" d="m0 0h3l4 6 28 28-27 5-11 2-28-28-1-3 10-4z" fill="#CC906C"/>
<path transform="translate(593,425)" d="m0 0 8 3 9 7 7 10 4 12 1 7v8l-3 15-3 8-4-1-3-2v-2l-3-1-3-5v-2h-2l-8-20-2-11v-15z" fill="#DBA079"/>
<path transform="translate(644,510)" d="m0 0h11l1 3-4 13-6 10-8 8-10 5-8 2h-8l-13-4 2-6 6-10 5-6 11-8 12-5z" fill="#AF7055"/>
<path transform="translate(170,510)" d="m0 0h11l13 3 13 7 10 9 6 9 3 6v3l-7 3-13 1-9-2-9-5-8-7-8-14-2-7z" fill="#AF7055"/>
<path transform="translate(601,565)" d="m0 0 14 1 10 3 1 3-6 10-9 9-10 5-8 2h-8l-13-4-9-7 2-4 5-6 11-7 12-4z" fill="#AF7055"/>
<path transform="translate(217,565)" d="m0 0h8l14 3 14 7 9 9-1 4-8 6-13 4h-8l-10-3-10-6-8-9-5-10 7-3z" fill="#AF7055"/>
<path transform="translate(515,206)" d="m0 0h8l12 3 10 6 8 7 7 11 4 10 1 4v7h-10l-11-3-11-7-7-7-8-14-3-10z" fill="#F0B88B"/>
<path transform="translate(302,206)" d="m0 0h9l-1 9-4 11-6 10-9 9-12 7-8 2h-11l1-9 4-11 6-10 9-9 8-5z" fill="#F0B88B"/>
<path transform="translate(535,603)" d="m0 0h18l14 4 12 7 3 3-2 4-10 8-11 4h-16l-10-4-8-6-8-10v-2l14-7z" fill="#AF7055"/>
<path transform="translate(480,619)" d="m0 0 11 1 13 5 11 8 9 9 3 5v2l-11 5-4 1h-14l-11-4-9-7-6-7-4-8-2-7 6-2z" fill="#AF7055"/>
<path transform="translate(335,620)" d="m0 0h18l6 2-1 5-6 12-6 7-10 6-9 3h-13l-10-3-6-4 4-6 8-9 10-7 11-5z" fill="#AF7055"/>
<path transform="translate(272,603)" d="m0 0h18l12 4 6 4-2 5-7 8-8 6-8 3h-17l-12-5-10-9v-3l11-7 9-4z" fill="#AF7055"/>
<path transform="translate(568,214)" d="m0 0 6 1 9 6 5 5 6 8 4 10 1 4v15l-4 13-2 4-4-1-10-10-8-16-3-11-1-7v-18z" fill="#F1B98B"/>
<path transform="translate(206,256)" d="m0 0h3l5 13 2 7 1 9v12l-2 12-5 12-4 6-4-2-6-8-4-8-2-7v-19l4-12 8-11z" fill="#F0B88B"/>
<path transform="translate(173,313)" d="m0 0 4 2 7 9 7 14 3 10 1 7v9l-2 13-2 5-4-1-6-4-8-8-5-10-3-12v-12l3-12z" fill="#DBA079"/>
<path transform="translate(650,313)" d="m0 0 4 2 5 12 1 5v18l-4 12-6 10-7 6h-2v2l-6 2-3-7-1-4v-20l4-15 7-13z" fill="#DBA079"/>
<path transform="translate(254,214)" d="m0 0h4v24l-4 16-7 14-9 10-5 2-4-8-3-14 2-16 7-14 8-8 8-5z" fill="#F1B98B"/>
<path transform="translate(617,255)" d="m0 0 7 6 6 8 5 12 1 7v10l-3 12-6 11-6 6h-2l-8-16-2-9v-22l4-16z" fill="#F1B98B"/>
<path transform="translate(157,378)" d="m0 0 8 4 10 9 9 14 4 10 2 9v16l-8-1-10-5-7-6-4-5-6-15-1-6v-14l2-9z" fill="#DBA079"/>
<path transform="translate(668,445)" d="m0 0h2v12l-3 12-4 9-1 2h-2l-1 4-5 5h-3v2h-3v2l-8 3h-16l2-12 4-10 9-12 9-8 14-7z" fill="#CB8F6B"/>
<path transform="translate(667,378)" d="m0 0h2l3 14-2 18-5 12h-2l-1 4-3 1-2 4-5 4-8 4-8 1v-20l4-12 6-11 9-10 7-6z" fill="#DBA079"/>
<path transform="translate(412,588)" d="m0 0 3 3 11 23v2l32 4-1 3-8 7-6 6h-2l-2 4-2 2v14l-7-6-11-14-13-16-5-6 1-5z" fill="#DBA079"/>
<path transform="translate(231,425)" d="m0 0 2 3 1 5v21l-4 15-5 12-20-1-1-3v-17l2-9 5-10 9-10 9-5z" fill="#CB8F6B"/>
<path transform="translate(374,795)" d="m0 0 5 5 9 7 11 5 15 3 4 17v4l-15 4-13 3h-4l-1 3-11-47z" fill="#264E76"/>
<path transform="translate(156,445)" d="m0 0 13 4 11 7 10 10 6 10-1 3-32-1-5-10-2-7z" fill="#CC906C"/>
<path transform="translate(593,459)" d="m0 0h20l8 1 1 4v8l-3 15-3 8-4-1-3-2v-2l-3-1-3-5v-2h-2l-8-20z" fill="#CB8F6B"/>
<path transform="translate(406,601)" d="m0 0 7 6 11 14 13 16 2 3-2 2v14l-7-6-11-14-13-16-5-6 1-5z" fill="#CB8F6B"/>
<path transform="translate(432,264)" d="m0 0 10 2 12 6 12 11 7 10 5 13v4l-5-2-40-40z" fill="#F1B98B"/>
<path transform="translate(347,511)" d="m0 0 3 4 6 11 9 10 10 7 16 6 14 2h15l14-2 15-5 11-7 7-8 1-2h2l2-6h2l1-6h2l-1 5-6 11-9 10-10 7-12 5-17 3h-18l-17-3-12-5-9-6-10-10-8-15z" fill="#863E1F"/>
<path transform="translate(196,476)" d="m0 0 2 3 3 9 1 8-1 1h-11l-10-3-9-6-7-7-1-3h32z" fill="#AF7055"/>
<path transform="translate(368,449)" d="m0 0h24l4 3 1 3v23l-5-2-23-23z" fill="#CC906C"/>
<path transform="translate(190,299)" d="m0 0 23 1 3 1-1 8-5 12-4 6-4-2-6-8-4-8z" fill="#DBA079"/>
<path transform="translate(572,309)" d="m0 0h15l9 3 9 7-1 3-2 1h-13l-21-1-3-7 1-4z" fill="#F0B88B"/>
<path transform="translate(256,654)" d="m0 0 5 2 13 8 11 6-1 13-5-1-17-9-7-5z" fill="#CB8F6B"/>
<path transform="translate(281,158)" d="m0 0 3 2v11l-28 16-1-11-1-3 19-11z" fill="#CC906C"/>
<path transform="translate(668,445)" d="m0 0h2v12l-1 6-22-1-3-2v-3l11-7z" fill="#DBA079"/>
<path transform="translate(582,484)" d="m0 0 7 6 6 10-2 2h-16l-3-2 5-12z" fill="#CC906C"/>
<path transform="translate(344,353)" d="m0 0 1 2 3 1h46l4-2-1 5-3 2h-46l-3-3z" fill="#843D1E"/>
<path transform="translate(205,480)" d="m0 0h14l5 1-4 7-8 9-3-3-4-10z" fill="#AF7055"/>
<path transform="translate(385,425)" d="m0 0 3 1 24 1 8 4 4 5-1 4-4-5-5-2-25-1-4-4z" fill="#884022"/>
<path transform="translate(385,410)" d="m0 0 5 2 11 11 1 4h-14l-3-4z" fill="#CB8F6B"/>
<path transform="translate(411,660)" d="m0 0 6 1 22 12 2 4-5-2-21-11h-5l-22 12-3 1 1-4z" fill="#863E1F"/>
<path transform="translate(519,616)" d="m0 0 5 5 7 6 8 4 4 1h16l11-4 10-8 2-1-2 4-8 7-12 5-5 1h-8l-13-4-8-6-7-8z" fill="#894022"/>
<path transform="translate(202,577)" d="m0 0 4 4 6 7 10 6 10 3h8l13-4 7-5h2l-1 3-10 6-9 3h-11l-10-3-9-6-7-7-3-5z" fill="#863E20"/>
<path transform="translate(394,886)" d="m0 0 2 1 4 18v3h-11l4-18z" fill="#274F76"/>
<path transform="translate(304,618)" d="m0 0v3l-4 5-9 6-7 3-6 1h-8l-13-4-8-6 2-1 12 6 3 1h17l10-4 10-9z" fill="#884022"/>
<path transform="translate(231,425)" d="m0 0 2 3 1 9h-14l-3-3 9-7z" fill="#DBA079"/>
<path transform="translate(620,581)" d="m0 0v3l-5 6-11 7-10 3h-10l-10-3-9-6-2-3 5 2 7 4 10 3h8l13-4 8-6z" fill="#863E20"/>
<path transform="translate(650,313)" d="m0 0 4 2 3 7-1 4h-13v-4z" fill="#EFB689"/>
<path transform="translate(474,640)" d="m0 0 7 6 10 6 7 2h14l11-4 4 1-10 5-4 1h-16l-12-5-10-9z" fill="#894122"/>
<path transform="translate(349,642)" d="m0 0v3l-8 7-9 4-4 1h-16l-10-4-3-2 1-2 9 4 5 1h13l11-4 9-6z" fill="#873F21"/>
<path transform="translate(180,537)" d="m0 0 8 6 12 6 13 1 9-2 4-1-1 3-9 3h-13l-11-4-8-6-4-4z" fill="#873F21"/>
<path transform="translate(406,315)" d="m0 0h10l6 4 2 5-1 3-2-5-6-2h-8l-5 3-3 3 1-6 4-4z" fill="#843D1E"/>
<path transform="translate(646,535)" d="m0 0v3l-8 8-12 6-5 1h-10l-10-3-2-2 8 1 5 1h8l13-4 8-6z" fill="#863E20"/>
<path transform="translate(525,236)" d="m0 0 7 6 9 6 9 4 15 2v2h-11l-12-4-10-7-7-7z" fill="#8A4325"/>
<path transform="translate(322,602)" d="m0 0 7 6 9 6 9 3 12 1h4v2l-10 1-13-3-10-6-8-8z" fill="#894022"/>
<path transform="translate(659,483)" d="m0 0v3l-9 8-9 4-4 1h-13v-2l16-2 8-2v-2h3v-2l5-3z" fill="#884123"/>
<path transform="translate(164,481)" d="m0 0 7 6 9 6 10 3 11 1v2h-12l-9-3-8-5-8-8z" fill="#873F21"/>
<path transform="translate(500,605)" d="m0 0v3l-9 7-11 5-13 1-5-1v-1l17-2 12-5z" fill="#894122"/>
<path transform="translate(454,624)" d="m0 0 4 1-12 11-9 9-1-3 5-6 8-7z" fill="#8A4123"/>
<path transform="translate(368,624)" d="m0 0 4 1 12 12 6 5v2l-5-2-17-17z" fill="#863E20"/>
<path transform="translate(620,581)" d="m0 0v3l-5 6-11 7-5 2h-5l-1-2 13-4 8-6z" fill="#884022"/>
<path transform="translate(272,582)" d="m0 0 5 5 8 7 10 5 5 2v2l-6-1-11-6-9-9z" fill="#863E20"/>
<path transform="translate(177,434)" d="m0 0h9l4 1v5l-8-1-7-3z" fill="#C68A67"/>
<path transform="translate(161,423)" d="m0 0 5 5 9 7 15 6v1l-8-1-10-5-8-7-3-4z" fill="#873F20"/>
<path transform="translate(551,584)" d="m0 0v3l-4 5-8 6-8 4-5 1-1-2 12-5 8-6z" fill="#8A4123"/>
<path transform="translate(202,577)" d="m0 0 4 4 6 7 10 6 5 2v2l-6-1-9-6-7-7-3-5z" fill="#884021"/>
<path transform="translate(526,275)" d="m0 0 8 6 8 5 10 4v2l-6-1-11-6-9-8z" fill="#8B4426"/>
<path transform="translate(250,332)" d="m0 0v3l-7 7-14 9-5 1 4-4 8-4 10-8z" fill="#863F20"/>
<path transform="translate(297,276)" d="m0 0 2 1-7 7-8 5-7 3-3-1 7-4 12-7z" fill="#8C4527"/>
<path transform="translate(474,383)" d="m0 0 1 2-7 11-6 5-2-1v-2l8-7z" fill="#843D1E"/>
<path transform="translate(604,410)" d="m0 0 16 12 8 4v2l-6-2-9-6-9-8z" fill="#873F21"/>
<path transform="translate(299,649)" d="m0 0 10 4 13 2-1 2h-9l-10-4-3-2z" fill="#894022"/>
<path transform="translate(657,430)" d="m0 0 2 1-7 6-11 5h-5l1-2 8-3 10-5z" fill="#894223"/>
<path transform="translate(523,650)" d="m0 0 4 1-10 5-10 1 1-2 13-4z" fill="#873F21"/>
<path transform="translate(216,414)" d="m0 0 2 1-9 8-9 5h-2v-2l12-7z" fill="#873F21"/>
<path transform="translate(640,495)" d="m0 0 2 1-1 2-4 1h-13v-2z" fill="#863E1F"/>
<path transform="translate(173,369)" d="m0 0 7 6 5 4 6 4-1 2-9-6-8-8z" fill="#8A4123"/>
<path transform="translate(547,252)" d="m0 0 18 2v2h-11l-7-2z" fill="#863E1F"/>
<path transform="translate(304,618)" d="m0 0v3l-4 5-9 6h-2v-2l9-6z" fill="#8B4224"/>
<path transform="translate(581,619)" d="m0 0v3l-9 8-6 2 5-5 9-7z" fill="#863E20"/>
<path transform="translate(217,352)" d="m0 0h5v2l-8 2h-8l3-2z" fill="#8A4325"/>
<path transform="translate(291,244)" d="m0 0 2 1-8 6-9 3 3-3z" fill="#8A4224"/>
<path transform="translate(412,433)" d="m0 0h3l1 9-5 2z" fill="#AD6D52"/>
<path transform="translate(474,640)" d="m0 0 7 6 6 4v2l-5-2-8-8z" fill="#8C4224"/>
<path transform="translate(236,549)" d="m0 0 7 6 2 4 2 1-4-1-7-8z" fill="#8C4224"/>
<path transform="translate(474,383)" d="m0 0 1 2-3 5-3 1 2-4zm-6 8m-1 1m-1 1m-1 1m-1 1m-1 1m-1 1m-2 1 2 1-2 1z" fill="#873F20"/>
<path transform="translate(236,344)" d="m0 0v3l-9 5-3-1 7-4z" fill="#874021"/>
</svg>
